<svg id="svg" version="1.1" xmlns="http://www.w3.org/2000/svg" xmlns:xlink="http://www.w3.org/1999/xlink" width="400" height="400" viewBox="0, 0, 400,400"><g id="svgg"><path id="path0" d="M139.625 129.010 C 133.608 129.399,129.940 132.550,129.237 137.931 C 129.070 139.215,129.008 161.958,129.054 204.954 L 129.125 270.033 135.875 264.086 C 164.803 238.602,195.082 212.013,196.078 211.219 C 198.178 209.547,200.481 209.359,202.456 210.700 C 203.219 211.218,232.476 236.799,234.042 238.317 C 235.025 239.271,259.075 260.331,260.473 261.463 C 263.935 264.267,266.580 264.467,268.797 262.094 C 270.213 260.577,270.120 265.122,270.191 194.310 L 270.256 128.745 206.316 128.788 C 171.148 128.812,141.137 128.912,139.625 129.010 " stroke="none" fill="#e8e6fb" fill-rule="evenodd"></path><path id="path1" d="M70.375 62.597 C 66.447 63.553,63.375 66.726,62.531 70.700 C 62.156 72.469,62.127 259.532,62.502 261.510 C 63.318 265.816,66.690 269.183,71.005 270.001 C 71.829 270.157,83.009 270.250,101.034 270.250 L 129.750 270.250 129.756 297.313 C 129.762 326.574,129.854 329.465,130.841 331.622 C 132.036 334.232,134.486 336.304,137.415 337.183 C 139.141 337.700,295.584 338.016,296.097 337.503 C 296.236 337.364,296.468 337.252,296.613 337.254 C 296.757 337.256,296.706 337.374,296.500 337.517 C 296.191 337.732,296.212 337.763,296.624 337.698 C 297.034 337.633,297.109 337.457,297.044 336.710 C 297.001 336.210,297.078 335.731,297.215 335.646 C 297.367 335.553,297.427 335.788,297.369 336.246 C 297.300 336.794,297.377 337.000,297.652 337.000 C 297.859 337.000,297.965 336.896,297.886 336.768 C 297.807 336.640,297.997 336.500,298.309 336.455 C 298.747 336.393,298.869 336.221,298.849 335.695 C 298.834 335.321,298.920 335.076,299.040 335.150 C 299.160 335.224,299.193 335.389,299.114 335.517 C 299.035 335.645,299.139 335.750,299.345 335.750 C 299.552 335.750,299.791 335.636,299.878 335.496 C 299.964 335.356,300.138 335.306,300.264 335.384 C 300.392 335.462,300.421 335.334,300.330 335.097 C 300.223 334.818,300.261 334.728,300.440 334.838 C 300.592 334.932,300.781 334.902,300.861 334.773 C 300.941 334.644,300.808 334.486,300.566 334.423 C 300.307 334.355,300.426 334.296,300.854 334.279 C 301.255 334.263,301.518 334.185,301.438 334.105 C 301.358 334.025,301.450 333.582,301.643 333.120 C 301.971 332.335,301.961 332.271,301.478 332.118 C 301.194 332.028,301.024 331.893,301.098 331.818 C 301.173 331.743,301.534 331.879,301.900 332.119 C 302.349 332.412,302.470 332.614,302.271 332.737 C 302.056 332.870,302.082 333.007,302.369 333.245 C 302.702 333.521,302.737 333.508,302.603 333.158 C 302.487 332.857,302.549 332.784,302.828 332.892 C 303.468 333.137,303.930 332.000,303.359 331.582 C 302.857 331.215,303.169 331.127,303.724 331.479 C 303.916 331.600,304.005 331.876,303.922 332.092 C 303.840 332.307,303.861 332.539,303.969 332.606 C 304.078 332.673,304.183 332.592,304.203 332.427 C 304.223 332.261,304.270 331.868,304.307 331.553 C 304.406 330.716,305.010 330.435,305.600 330.950 C 305.867 331.184,306.009 331.243,305.916 331.083 C 305.822 330.922,305.915 330.621,306.123 330.413 C 306.580 329.955,306.616 329.662,306.188 329.879 C 306.016 329.966,306.072 329.876,306.313 329.678 C 306.799 329.280,306.914 328.869,306.461 329.149 C 306.271 329.267,306.241 329.217,306.375 329.001 C 306.534 328.742,306.639 328.760,306.878 329.087 C 307.200 329.528,307.635 329.670,307.375 329.250 C 307.290 329.113,307.396 329.000,307.610 329.000 C 307.825 329.000,308.000 328.891,308.000 328.758 C 308.000 328.625,307.859 328.550,307.688 328.592 C 307.516 328.634,307.460 328.621,307.564 328.563 C 307.668 328.505,307.690 328.354,307.612 328.229 C 307.392 327.873,307.674 327.960,308.090 328.376 C 308.425 328.710,308.456 328.676,308.375 328.063 C 308.325 327.685,308.277 327.299,308.267 327.206 C 308.258 327.113,308.053 326.985,307.813 326.922 C 307.408 326.817,307.407 326.806,307.805 326.779 C 308.041 326.763,308.390 327.047,308.580 327.411 C 308.801 327.833,308.990 327.968,309.103 327.786 C 309.200 327.629,309.209 327.500,309.122 327.500 C 308.661 327.500,309.813 326.739,310.341 326.696 C 310.683 326.667,310.913 326.561,310.850 326.460 C 310.674 326.175,311.721 325.703,312.068 325.911 C 312.267 326.031,312.254 325.947,312.032 325.673 C 311.843 325.440,311.506 325.239,311.282 325.225 C 311.056 325.211,311.153 325.116,311.500 325.011 C 311.940 324.878,312.218 324.937,312.438 325.209 C 312.716 325.553,312.750 325.547,312.750 325.155 C 312.750 324.913,312.581 324.546,312.375 324.339 C 312.169 324.133,312.002 323.832,312.004 323.670 C 312.006 323.498,312.107 323.532,312.245 323.750 C 312.662 324.410,313.746 324.233,314.158 323.436 C 314.671 322.444,315.553 321.612,315.985 321.711 C 316.289 321.781,316.295 321.730,316.018 321.397 C 315.657 320.962,315.992 320.842,316.408 321.258 C 316.586 321.436,316.667 321.397,316.667 321.133 C 316.667 320.923,316.566 320.750,316.444 320.750 C 316.321 320.750,316.291 320.636,316.378 320.496 C 316.464 320.356,316.657 320.318,316.807 320.410 C 316.981 320.518,317.032 320.400,316.949 320.081 C 316.867 319.770,316.942 319.583,317.148 319.583 C 317.330 319.583,317.408 319.696,317.323 319.834 C 317.233 319.980,317.330 320.023,317.554 319.937 C 317.766 319.856,318.065 319.915,318.220 320.070 C 318.427 320.277,318.500 320.276,318.500 320.065 C 318.500 319.908,318.403 319.719,318.284 319.646 C 317.997 319.468,318.224 318.333,318.611 318.012 C 318.828 317.832,318.917 317.863,318.917 318.118 C 318.917 318.316,318.823 318.420,318.708 318.349 C 318.594 318.278,318.500 318.313,318.500 318.425 C 318.500 318.538,318.753 318.784,319.063 318.973 C 319.372 319.161,319.542 319.227,319.440 319.118 C 319.338 319.010,319.394 318.748,319.565 318.538 C 319.812 318.232,319.812 318.192,319.563 318.342 C 319.366 318.460,319.250 318.385,319.250 318.140 C 319.250 317.791,319.538 317.640,320.055 317.718 C 320.154 317.733,320.357 317.518,320.505 317.241 C 320.654 316.963,320.882 316.802,321.013 316.883 C 321.143 316.963,321.250 316.854,321.250 316.640 C 321.250 316.425,321.370 316.250,321.516 316.250 C 321.662 316.250,321.761 316.053,321.737 315.813 C 321.649 314.953,321.751 314.697,322.125 314.840 C 322.331 314.920,322.500 314.902,322.500 314.802 C 322.500 314.702,322.735 314.474,323.022 314.294 C 323.504 313.994,323.531 314.013,323.385 314.547 C 323.246 315.053,323.261 315.069,323.508 314.674 C 323.719 314.337,323.714 314.133,323.489 313.862 C 323.249 313.572,323.267 313.500,323.578 313.500 C 323.791 313.500,324.038 313.273,324.126 312.996 C 324.214 312.719,324.396 312.561,324.530 312.644 C 324.681 312.737,324.650 312.954,324.450 313.210 C 324.159 313.582,324.171 313.589,324.566 313.279 C 324.904 313.014,324.940 312.854,324.722 312.592 C 324.510 312.336,324.513 312.250,324.734 312.250 C 324.897 312.250,324.965 312.145,324.886 312.017 C 324.807 311.889,324.868 311.706,325.023 311.611 C 325.226 311.486,325.218 311.385,324.995 311.247 C 324.825 311.142,324.767 310.924,324.867 310.763 C 324.996 310.554,325.138 310.593,325.361 310.898 C 325.533 311.134,325.804 311.246,325.962 311.148 C 326.346 310.911,326.330 311.311,325.938 311.750 C 325.671 312.050,325.690 312.051,326.074 311.760 C 326.321 311.573,326.465 311.269,326.394 311.085 C 326.324 310.901,326.365 310.750,326.487 310.750 C 326.609 310.750,326.753 310.885,326.808 311.050 C 326.870 311.234,326.973 311.181,327.076 310.912 C 327.169 310.671,327.146 310.535,327.025 310.609 C 326.905 310.684,326.653 310.556,326.466 310.325 C 326.168 309.959,326.180 309.927,326.563 310.070 C 326.803 310.161,327.000 310.119,327.000 309.977 C 327.000 309.836,327.105 309.785,327.233 309.864 C 327.361 309.943,327.536 309.894,327.622 309.754 C 327.709 309.614,327.660 309.500,327.515 309.500 C 327.369 309.500,327.250 309.381,327.250 309.235 C 327.250 309.090,327.363 309.040,327.500 309.125 C 327.729 309.267,327.861 308.925,327.773 308.419 C 327.754 308.306,327.855 308.285,327.998 308.374 C 328.141 308.462,328.205 308.621,328.140 308.726 C 328.075 308.831,328.181 308.917,328.375 308.917 C 328.569 308.917,328.690 308.851,328.643 308.771 C 328.473 308.478,329.003 307.472,329.248 307.624 C 329.387 307.709,329.500 307.613,329.500 307.410 C 329.500 307.207,329.575 306.844,329.667 306.604 C 329.791 306.283,329.747 306.222,329.504 306.373 C 329.277 306.513,329.232 306.481,329.361 306.272 C 329.502 306.044,329.674 306.080,330.043 306.414 C 330.424 306.758,330.518 306.776,330.456 306.493 C 330.411 306.291,330.524 306.156,330.706 306.194 C 330.888 306.231,330.965 306.145,330.876 306.002 C 330.788 305.859,330.618 305.802,330.500 305.875 C 330.382 305.948,330.214 305.894,330.128 305.754 C 330.035 305.604,330.308 305.486,330.798 305.466 C 331.360 305.443,331.449 305.398,331.076 305.325 C 330.500 305.213,330.532 304.694,331.156 304.063 C 331.619 303.593,331.953 303.684,332.074 304.313 C 332.165 304.785,332.187 304.762,332.216 304.173 C 332.235 303.787,332.344 303.528,332.458 303.599 C 332.573 303.670,332.667 303.559,332.667 303.353 C 332.667 303.147,332.545 303.025,332.396 303.082 C 332.247 303.140,332.125 302.917,332.125 302.589 C 332.125 302.067,332.163 302.042,332.421 302.395 C 332.584 302.618,332.849 302.718,333.010 302.619 C 333.228 302.484,333.216 302.377,332.964 302.201 C 332.729 302.037,332.870 301.994,333.424 302.062 C 333.864 302.116,334.172 302.076,334.109 301.974 C 334.046 301.871,334.192 301.747,334.434 301.696 C 334.796 301.621,334.774 301.577,334.312 301.451 C 333.927 301.345,333.800 301.388,333.911 301.586 C 334.033 301.802,333.994 301.802,333.758 301.584 C 333.282 301.145,333.692 300.643,334.194 301.050 C 334.535 301.328,334.570 301.312,334.433 300.946 C 334.344 300.709,334.375 300.453,334.500 300.375 C 334.625 300.297,334.658 300.041,334.573 299.804 C 334.478 299.543,334.626 299.620,334.950 300.000 C 335.243 300.344,335.500 300.512,335.521 300.375 C 335.541 300.238,335.573 299.986,335.591 299.815 C 335.610 299.645,335.717 299.532,335.830 299.565 C 335.943 299.598,336.143 299.433,336.274 299.198 C 336.417 298.943,336.687 298.826,336.944 298.909 C 337.280 299.017,337.299 298.993,337.030 298.802 C 336.841 298.666,336.763 298.431,336.858 298.278 C 336.952 298.125,336.907 298.000,336.757 298.000 C 336.607 298.000,336.394 298.244,336.283 298.543 C 336.163 298.866,336.015 298.976,335.915 298.816 C 335.824 298.667,336.080 298.267,336.485 297.926 C 336.891 297.585,337.154 297.237,337.069 297.153 C 336.985 297.069,337.024 297.000,337.155 297.000 C 337.286 297.000,337.393 296.775,337.393 296.500 C 337.393 296.225,337.304 296.000,337.196 296.000 C 337.088 296.000,337.000 295.881,337.000 295.735 C 337.000 295.590,337.113 295.540,337.250 295.625 C 337.393 295.713,337.508 295.478,337.519 295.077 C 337.529 294.691,337.587 294.107,337.647 293.779 C 337.746 293.242,337.713 293.217,337.316 293.525 C 336.900 293.847,336.900 293.837,337.319 293.344 C 337.961 292.588,337.861 139.798,337.217 137.463 C 336.260 133.996,333.671 131.376,330.125 130.289 C 329.040 129.956,325.014 129.893,299.566 129.814 L 270.257 129.724 270.191 194.799 C 270.131 254.092,270.089 259.953,269.721 260.750 C 269.257 261.756,267.404 263.555,267.098 263.298 C 266.984 263.203,267.030 263.308,267.200 263.531 C 267.509 263.937,266.715 264.750,266.009 264.750 C 265.866 264.750,265.750 264.919,265.750 265.125 C 265.750 265.605,265.144 265.609,264.667 265.131 C 264.342 264.807,264.281 264.808,264.153 265.142 C 264.038 265.441,263.900 265.464,263.499 265.249 C 263.219 265.099,262.862 265.056,262.706 265.152 C 262.539 265.255,262.491 265.216,262.590 265.056 C 262.683 264.907,262.638 264.711,262.492 264.620 C 262.310 264.507,262.328 264.325,262.550 264.040 C 262.837 263.674,262.826 263.663,262.460 263.949 C 262.109 264.224,261.990 264.195,261.688 263.764 C 261.491 263.483,261.267 263.316,261.191 263.393 C 261.114 263.469,260.622 263.018,260.098 262.391 C 259.573 261.763,259.011 261.250,258.849 261.250 C 258.686 261.250,258.489 261.083,258.411 260.879 C 258.333 260.675,257.590 260.198,256.759 259.819 C 255.925 259.437,255.250 258.967,255.250 258.767 C 255.250 258.503,255.356 258.536,255.639 258.890 C 256.014 259.358,256.018 259.356,255.762 258.826 C 255.617 258.525,255.368 258.198,255.210 258.100 C 255.033 257.991,254.991 258.033,255.101 258.211 C 255.199 258.370,255.160 258.500,255.015 258.500 C 254.869 258.500,254.750 258.334,254.750 258.131 C 254.750 257.928,254.477 257.583,254.144 257.364 C 253.810 257.146,253.422 256.637,253.282 256.234 C 253.141 255.830,252.957 255.500,252.873 255.500 C 252.789 255.500,252.792 255.641,252.879 255.813 C 252.966 255.984,252.860 255.907,252.644 255.640 C 252.427 255.373,252.250 255.260,252.250 255.390 C 252.250 255.519,251.968 255.298,251.625 254.899 C 251.281 254.499,251.000 254.077,251.000 253.961 C 251.000 253.845,250.831 253.750,250.625 253.750 C 250.419 253.750,250.250 253.637,250.250 253.500 C 250.250 253.363,250.081 253.250,249.875 253.250 C 249.669 253.250,249.500 253.131,249.500 252.985 C 249.500 252.840,249.613 252.790,249.750 252.875 C 250.247 253.182,249.986 252.316,249.442 251.851 C 249.100 251.559,249.002 251.529,249.190 251.773 C 249.358 251.992,249.427 252.240,249.343 252.324 C 249.155 252.511,248.465 251.854,248.558 251.575 C 248.646 251.310,246.993 249.500,246.662 249.500 C 246.520 249.500,246.623 249.676,246.890 249.891 C 247.207 250.146,247.246 250.248,247.000 250.183 C 246.794 250.130,246.500 249.837,246.347 249.533 C 245.901 248.647,244.974 247.776,244.621 247.911 C 244.442 247.980,244.226 247.819,244.142 247.554 C 244.058 247.288,241.892 245.227,239.329 242.973 C 236.765 240.719,234.481 238.706,234.253 238.500 C 229.395 234.113,203.170 211.185,202.456 210.700 C 200.481 209.359,198.178 209.547,196.078 211.219 C 195.082 212.013,164.803 238.602,135.875 264.086 L 129.125 270.033 129.054 204.954 C 128.971 128.739,128.673 135.250,132.407 131.757 C 135.893 128.496,128.945 128.774,207.313 128.761 L 270.250 128.750 270.250 100.534 C 270.250 82.626,270.158 71.833,269.998 70.990 C 269.167 66.606,265.694 63.206,261.316 62.489 C 258.994 62.109,71.946 62.214,70.375 62.597 M248.369 251.443 C 248.229 251.644,247.500 251.145,247.500 250.848 C 247.500 250.583,247.609 250.604,247.958 250.938 C 248.210 251.178,248.395 251.406,248.369 251.443 M330.889 302.895 C 330.266 303.351,329.883 303.355,330.303 302.901 C 330.480 302.709,330.709 302.604,330.813 302.666 C 330.916 302.728,331.000 302.642,331.000 302.473 C 331.000 302.305,331.084 302.251,331.187 302.354 C 331.290 302.457,331.156 302.700,330.889 302.895 M331.261 304.479 C 331.108 304.766,331.087 305.000,331.214 305.000 C 331.471 305.000,331.826 304.243,331.651 304.068 C 331.590 304.007,331.415 304.192,331.261 304.479 M328.533 307.586 C 328.380 307.770,328.334 308.001,328.432 308.099 C 328.530 308.196,328.394 308.194,328.130 308.092 C 327.847 307.984,327.774 307.867,327.952 307.808 C 328.117 307.753,328.190 307.604,328.112 307.479 C 328.034 307.353,328.160 307.250,328.391 307.250 C 328.714 307.250,328.747 307.327,328.533 307.586 M327.002 308.122 C 326.832 308.327,326.595 308.434,326.475 308.359 C 326.354 308.285,326.323 308.399,326.405 308.612 C 326.486 308.825,326.441 309.000,326.303 309.000 C 325.954 309.000,325.721 308.298,326.011 308.118 C 326.142 308.037,326.355 308.035,326.483 308.114 C 326.611 308.193,326.786 308.144,326.872 308.004 C 326.959 307.864,327.093 307.750,327.170 307.750 C 327.248 307.750,327.172 307.918,327.002 308.122 M326.382 309.304 C 326.491 309.205,326.502 309.261,326.407 309.427 C 326.312 309.592,326.050 309.658,325.826 309.572 C 325.572 309.474,325.480 309.515,325.583 309.681 C 325.811 310.051,325.157 310.259,324.727 309.953 C 324.448 309.755,324.466 309.732,324.813 309.844 C 325.209 309.971,325.370 309.739,325.276 309.177 C 325.258 309.068,325.455 309.092,325.714 309.230 C 325.972 309.369,326.273 309.402,326.382 309.304 M324.304 312.296 C 323.967 312.633,323.700 312.172,323.911 311.620 C 324.065 311.221,324.089 311.221,324.313 311.622 C 324.466 311.896,324.463 312.137,324.304 312.296 M323.093 312.367 C 323.019 312.560,322.804 312.659,322.615 312.587 C 322.346 312.483,322.337 312.385,322.574 312.129 C 322.942 311.730,323.278 311.885,323.093 312.367 M320.000 316.250 C 319.853 316.525,319.612 316.750,319.464 316.750 C 319.317 316.750,319.252 316.896,319.321 317.074 C 319.396 317.271,319.236 317.413,318.913 317.438 C 318.609 317.461,318.505 317.401,318.671 317.299 C 318.830 317.201,318.997 316.956,319.042 316.754 C 319.108 316.465,319.733 315.934,320.196 315.775 C 320.236 315.761,320.147 315.975,320.000 316.250 M320.604 316.813 C 320.343 317.122,320.101 317.422,320.065 317.479 C 320.029 317.536,320.000 317.460,320.000 317.310 C 320.000 317.023,320.680 316.250,320.932 316.250 C 321.012 316.250,320.864 316.503,320.604 316.813 M314.103 321.813 C 314.003 322.122,313.920 322.511,313.919 322.677 C 313.918 322.842,313.830 322.924,313.723 322.858 C 313.617 322.793,313.647 322.404,313.789 321.994 C 314.089 321.135,314.374 320.969,314.103 321.813 M312.929 321.854 C 312.935 322.003,313.022 322.322,313.122 322.563 C 313.250 322.871,313.187 323.000,312.910 323.000 C 312.648 323.000,312.563 323.146,312.656 323.438 C 312.775 323.807,312.755 323.816,312.528 323.500 C 312.329 323.222,312.352 323.055,312.620 322.854 C 312.930 322.622,312.932 322.514,312.630 322.084 C 312.358 321.695,312.351 321.583,312.598 321.583 C 312.773 321.583,312.922 321.705,312.929 321.854 M310.500 326.166 C 310.500 326.196,310.370 326.301,310.211 326.399 C 310.033 326.509,309.991 326.467,310.101 326.289 C 310.207 326.118,310.121 326.000,309.890 326.000 C 309.675 326.000,309.500 325.832,309.500 325.627 C 309.500 325.316,309.582 325.325,310.000 325.683 C 310.275 325.918,310.500 326.136,310.500 326.166 M309.194 326.357 C 309.167 326.691,309.065 326.915,308.969 326.856 C 308.830 326.770,308.836 326.287,308.981 325.813 C 309.080 325.490,309.233 325.882,309.194 326.357 M304.750 331.000 C 304.552 331.123,304.472 331.306,304.574 331.407 C 304.675 331.509,304.890 331.460,305.050 331.300 C 305.428 330.922,305.217 330.711,304.750 331.000 M295.932 336.516 C 295.955 336.822,295.850 336.987,295.673 336.922 C 295.509 336.862,295.405 336.658,295.441 336.469 C 295.478 336.276,295.341 336.338,295.129 336.610 C 294.920 336.877,294.750 336.984,294.750 336.848 C 294.750 336.059,295.874 335.744,295.932 336.516 " stroke="none" fill="#3ec1fb" fill-rule="evenodd"></path><path id="path2" d="M0.000 200.000 L 0.000 400.000 200.000 400.000 L 400.000 400.000 400.000 200.000 L 400.000 0.000 200.000 0.000 L 0.000 0.000 0.000 200.000 M264.045 63.166 C 266.915 64.526,269.029 66.916,269.853 69.733 C 270.206 70.939,270.250 74.362,270.250 100.420 L 270.250 129.750 299.079 129.750 C 318.759 129.750,328.379 129.836,329.392 130.022 C 333.519 130.778,336.786 134.108,337.496 138.283 C 337.688 139.411,337.746 167.519,337.696 234.750 L 337.625 329.625 337.054 331.036 C 335.933 333.809,333.815 335.933,331.063 337.044 L 329.625 337.625 234.875 337.693 C 169.041 337.741,139.596 337.681,138.393 337.497 C 134.160 336.849,130.800 333.591,130.022 329.378 C 129.836 328.374,129.750 318.767,129.750 299.083 L 129.750 270.258 99.938 270.191 L 70.125 270.125 68.455 269.334 C 65.572 267.968,63.455 265.567,62.644 262.744 C 62.284 261.492,62.253 252.430,62.311 165.744 L 62.375 70.125 63.166 68.455 C 64.506 65.626,66.626 63.737,69.622 62.699 C 70.804 62.290,76.290 62.268,166.625 62.320 L 262.375 62.375 264.045 63.166 " stroke="none" fill="#04043b" fill-rule="evenodd"></path><path id="path3" d="M266.500 64.828 C 266.500 64.871,266.866 65.237,267.313 65.641 L 268.125 66.375 267.391 65.563 C 266.706 64.805,266.500 64.635,266.500 64.828 M326.188 129.926 C 326.497 129.986,327.003 129.986,327.313 129.926 C 327.622 129.867,327.369 129.818,326.750 129.818 C 326.131 129.818,325.878 129.867,326.188 129.926 M337.577 141.375 C 337.579 142.200,337.626 142.507,337.681 142.058 C 337.737 141.609,337.736 140.934,337.679 140.558 C 337.622 140.182,337.576 140.550,337.577 141.375 M246.250 249.472 C 246.250 249.747,246.975 250.359,247.124 250.210 C 247.185 250.148,247.013 249.909,246.743 249.677 C 246.472 249.445,246.250 249.353,246.250 249.472 M247.520 250.813 C 247.509 251.053,247.607 251.250,247.739 251.250 C 247.870 251.250,248.241 251.503,248.563 251.813 C 248.884 252.122,249.308 252.411,249.504 252.456 C 250.030 252.575,249.054 251.551,248.463 251.363 C 248.205 251.281,248.068 251.092,248.160 250.943 C 248.255 250.790,248.212 250.744,248.060 250.838 C 247.913 250.929,247.736 250.862,247.666 250.689 C 247.590 250.500,247.532 250.549,247.520 250.813 M250.000 252.773 C 250.000 252.914,249.887 252.960,249.750 252.875 C 249.613 252.790,249.500 252.840,249.500 252.985 C 249.500 253.131,249.669 253.250,249.875 253.250 C 250.081 253.250,250.250 253.363,250.250 253.500 C 250.250 253.637,250.419 253.750,250.625 253.750 C 250.831 253.750,251.000 253.845,251.000 253.961 C 251.000 254.077,251.281 254.499,251.625 254.899 C 251.968 255.298,252.250 255.519,252.250 255.390 C 252.250 255.260,252.427 255.373,252.644 255.640 C 252.860 255.907,252.966 255.984,252.879 255.813 C 252.792 255.641,252.789 255.500,252.873 255.500 C 252.957 255.500,253.141 255.830,253.282 256.234 C 253.422 256.637,253.810 257.146,254.144 257.364 C 254.477 257.583,254.750 257.928,254.750 258.131 C 254.750 258.334,254.869 258.500,255.015 258.500 C 255.160 258.500,255.199 258.370,255.101 258.211 C 254.991 258.033,255.033 257.991,255.210 258.100 C 255.368 258.198,255.617 258.525,255.762 258.826 C 256.018 259.356,256.014 259.358,255.639 258.890 C 255.356 258.536,255.250 258.503,255.250 258.767 C 255.250 258.967,255.925 259.437,256.759 259.819 C 257.590 260.198,258.333 260.675,258.411 260.879 C 258.489 261.083,258.686 261.250,258.849 261.250 C 259.011 261.250,259.573 261.763,260.098 262.391 C 260.622 263.018,261.114 263.469,261.191 263.393 C 261.267 263.316,261.491 263.483,261.688 263.764 C 261.990 264.195,262.109 264.224,262.460 263.949 C 262.826 263.663,262.837 263.674,262.550 264.040 C 262.328 264.325,262.310 264.507,262.492 264.620 C 262.638 264.711,262.683 264.907,262.590 265.056 C 262.491 265.216,262.539 265.255,262.706 265.152 C 262.862 265.056,263.219 265.099,263.499 265.249 C 263.900 265.464,264.038 265.441,264.153 265.142 C 264.281 264.808,264.342 264.807,264.667 265.131 C 265.117 265.581,265.748 265.614,265.756 265.188 C 265.759 265.016,266.114 264.701,266.546 264.489 C 266.978 264.276,267.359 263.912,267.393 263.679 C 267.444 263.330,267.368 263.303,266.955 263.524 C 264.674 264.745,262.832 263.748,255.499 257.329 C 252.474 254.682,250.000 252.631,250.000 252.773 M64.500 266.328 C 64.500 266.371,64.866 266.737,65.313 267.141 L 66.125 267.875 65.391 267.063 C 64.706 266.305,64.500 266.135,64.500 266.328 M337.561 294.952 C 337.526 295.428,337.394 295.714,337.250 295.625 C 337.113 295.540,337.000 295.590,337.000 295.735 C 337.000 295.881,337.088 296.000,337.196 296.000 C 337.304 296.000,337.393 296.225,337.393 296.500 C 337.393 296.775,337.286 297.000,337.155 297.000 C 337.024 297.000,336.985 297.069,337.069 297.153 C 337.154 297.237,336.891 297.585,336.485 297.926 C 336.080 298.267,335.824 298.667,335.915 298.816 C 336.015 298.976,336.163 298.866,336.283 298.543 C 336.394 298.244,336.607 298.000,336.757 298.000 C 336.907 298.000,336.952 298.125,336.858 298.278 C 336.763 298.431,336.841 298.666,337.030 298.802 C 337.299 298.993,337.280 299.017,336.944 298.909 C 336.687 298.826,336.417 298.943,336.274 299.198 C 336.143 299.433,335.943 299.598,335.830 299.565 C 335.717 299.532,335.610 299.645,335.591 299.815 C 335.573 299.986,335.541 300.238,335.521 300.375 C 335.500 300.512,335.243 300.344,334.950 300.000 C 334.626 299.620,334.478 299.543,334.573 299.804 C 334.658 300.041,334.625 300.297,334.500 300.375 C 334.375 300.453,334.344 300.709,334.433 300.946 C 334.570 301.312,334.535 301.328,334.194 301.050 C 333.692 300.643,333.282 301.145,333.758 301.584 C 333.994 301.802,334.033 301.802,333.911 301.586 C 333.800 301.388,333.927 301.345,334.312 301.451 C 334.774 301.577,334.796 301.621,334.434 301.696 C 334.192 301.747,334.046 301.871,334.109 301.974 C 334.172 302.076,333.864 302.116,333.424 302.062 C 332.870 301.994,332.729 302.037,332.964 302.201 C 333.216 302.377,333.228 302.484,333.010 302.619 C 332.849 302.718,332.584 302.618,332.421 302.395 C 332.163 302.042,332.125 302.067,332.125 302.589 C 332.125 302.917,332.247 303.140,332.396 303.082 C 332.545 303.025,332.667 303.147,332.667 303.353 C 332.667 303.559,332.573 303.670,332.458 303.599 C 332.344 303.528,332.235 303.787,332.216 304.173 C 332.187 304.762,332.165 304.785,332.074 304.313 C 331.953 303.684,331.619 303.593,331.156 304.063 C 330.532 304.694,330.500 305.213,331.076 305.325 C 331.449 305.398,331.360 305.443,330.798 305.466 C 330.308 305.486,330.035 305.604,330.128 305.754 C 330.214 305.894,330.382 305.948,330.500 305.875 C 330.618 305.802,330.788 305.859,330.876 306.002 C 330.965 306.145,330.888 306.231,330.706 306.194 C 330.524 306.156,330.411 306.291,330.456 306.493 C 330.518 306.776,330.424 306.758,330.043 306.414 C 329.674 306.080,329.502 306.044,329.361 306.272 C 329.232 306.481,329.277 306.513,329.504 306.373 C 329.747 306.222,329.791 306.283,329.667 306.604 C 329.575 306.844,329.500 307.207,329.500 307.410 C 329.500 307.613,329.387 307.709,329.248 307.624 C 329.003 307.472,328.473 308.478,328.643 308.771 C 328.690 308.851,328.569 308.917,328.375 308.917 C 328.181 308.917,328.075 308.831,328.140 308.726 C 328.205 308.621,328.141 308.462,327.998 308.374 C 327.855 308.285,327.754 308.306,327.773 308.419 C 327.861 308.925,327.729 309.267,327.500 309.125 C 327.363 309.040,327.250 309.090,327.250 309.235 C 327.250 309.381,327.369 309.500,327.515 309.500 C 327.660 309.500,327.709 309.614,327.622 309.754 C 327.536 309.894,327.361 309.943,327.233 309.864 C 327.105 309.785,327.000 309.836,327.000 309.977 C 327.000 310.119,326.803 310.161,326.563 310.070 C 326.180 309.927,326.168 309.959,326.466 310.325 C 326.653 310.556,326.905 310.684,327.025 310.609 C 327.146 310.535,327.169 310.671,327.076 310.912 C 326.973 311.181,326.870 311.234,326.808 311.050 C 326.753 310.885,326.609 310.750,326.487 310.750 C 326.365 310.750,326.324 310.901,326.394 311.085 C 326.465 311.269,326.321 311.573,326.074 311.760 C 325.690 312.051,325.671 312.050,325.938 311.750 C 326.330 311.311,326.346 310.911,325.962 311.148 C 325.804 311.246,325.533 311.134,325.361 310.898 C 325.138 310.593,324.996 310.554,324.867 310.763 C 324.767 310.924,324.825 311.142,324.995 311.247 C 325.218 311.385,325.226 311.486,325.023 311.611 C 324.868 311.706,324.807 311.889,324.886 312.017 C 324.965 312.145,324.897 312.250,324.734 312.250 C 324.513 312.250,324.510 312.336,324.722 312.592 C 324.940 312.854,324.904 313.014,324.566 313.279 C 324.171 313.589,324.159 313.582,324.450 313.210 C 324.650 312.954,324.681 312.737,324.530 312.644 C 324.396 312.561,324.214 312.719,324.126 312.996 C 324.038 313.273,323.791 313.500,323.578 313.500 C 323.267 313.500,323.249 313.572,323.489 313.862 C 323.714 314.133,323.719 314.337,323.508 314.674 C 323.261 315.069,323.246 315.053,323.385 314.547 C 323.531 314.013,323.504 313.994,323.022 314.294 C 322.735 314.474,322.500 314.702,322.500 314.802 C 322.500 314.902,322.331 314.920,322.125 314.840 C 321.751 314.697,321.649 314.953,321.737 315.813 C 321.761 316.053,321.662 316.250,321.516 316.250 C 321.370 316.250,321.250 316.425,321.250 316.640 C 321.250 316.854,321.136 316.959,320.996 316.872 C 320.856 316.786,320.807 316.611,320.886 316.483 C 321.112 316.117,320.825 316.210,320.393 316.643 C 320.177 316.859,320.000 317.162,320.000 317.316 C 320.000 317.470,320.175 317.377,320.389 317.110 C 320.762 316.644,320.767 316.647,320.506 317.185 C 320.357 317.493,320.154 317.733,320.055 317.718 C 319.538 317.640,319.250 317.791,319.250 318.140 C 319.250 318.385,319.366 318.460,319.563 318.342 C 319.812 318.192,319.812 318.232,319.565 318.538 C 319.394 318.748,319.338 319.010,319.440 319.118 C 319.542 319.227,319.372 319.161,319.063 318.973 C 318.753 318.784,318.500 318.538,318.500 318.425 C 318.500 318.313,318.594 318.278,318.708 318.349 C 318.823 318.420,318.917 318.316,318.917 318.118 C 318.917 317.863,318.828 317.832,318.611 318.012 C 318.224 318.333,317.997 319.468,318.284 319.646 C 318.403 319.719,318.500 319.908,318.500 320.065 C 318.500 320.276,318.427 320.277,318.220 320.070 C 318.065 319.915,317.766 319.856,317.554 319.937 C 317.330 320.023,317.233 319.980,317.323 319.834 C 317.408 319.696,317.330 319.583,317.148 319.583 C 316.942 319.583,316.867 319.770,316.949 320.081 C 317.032 320.400,316.981 320.518,316.807 320.410 C 316.657 320.318,316.464 320.356,316.378 320.496 C 316.291 320.636,316.321 320.750,316.444 320.750 C 316.566 320.750,316.667 320.923,316.667 321.133 C 316.667 321.397,316.586 321.436,316.408 321.258 C 315.992 320.842,315.657 320.962,316.018 321.397 C 316.295 321.730,316.289 321.781,315.985 321.711 C 315.553 321.612,314.671 322.444,314.158 323.436 C 313.746 324.233,312.662 324.410,312.245 323.750 C 312.107 323.532,312.006 323.498,312.004 323.670 C 312.002 323.832,312.169 324.133,312.375 324.339 C 312.581 324.546,312.750 324.913,312.750 325.155 C 312.750 325.547,312.716 325.553,312.438 325.209 C 312.218 324.937,311.940 324.878,311.500 325.011 C 311.153 325.116,311.056 325.211,311.282 325.225 C 311.506 325.239,311.843 325.440,312.032 325.673 C 312.254 325.947,312.267 326.031,312.068 325.911 C 311.721 325.703,310.674 326.175,310.850 326.460 C 310.913 326.561,310.683 326.667,310.341 326.696 C 309.772 326.743,308.969 327.290,308.991 327.616 C 309.022 328.086,308.938 328.047,308.607 327.438 C 308.402 327.059,308.041 326.763,307.805 326.779 C 307.407 326.806,307.408 326.817,307.813 326.922 C 308.053 326.985,308.258 327.113,308.267 327.206 C 308.277 327.299,308.325 327.685,308.375 328.063 C 308.456 328.676,308.425 328.710,308.090 328.376 C 307.674 327.960,307.392 327.873,307.612 328.229 C 307.690 328.354,307.668 328.505,307.564 328.563 C 307.460 328.621,307.516 328.634,307.688 328.592 C 307.859 328.550,308.000 328.625,308.000 328.758 C 308.000 328.891,307.825 329.000,307.610 329.000 C 307.396 329.000,307.290 329.113,307.375 329.250 C 307.635 329.670,307.200 329.528,306.878 329.087 C 306.639 328.760,306.534 328.742,306.375 329.001 C 306.241 329.217,306.271 329.267,306.461 329.149 C 306.914 328.869,306.799 329.280,306.313 329.678 C 306.072 329.876,306.016 329.966,306.188 329.879 C 306.616 329.662,306.580 329.955,306.123 330.413 C 305.915 330.621,305.822 330.922,305.916 331.083 C 306.009 331.243,305.867 331.184,305.600 330.950 C 305.010 330.435,304.406 330.716,304.307 331.553 C 304.270 331.868,304.223 332.261,304.203 332.427 C 304.183 332.592,304.078 332.673,303.969 332.606 C 303.861 332.539,303.840 332.307,303.922 332.092 C 304.005 331.876,303.916 331.600,303.724 331.479 C 303.169 331.127,302.857 331.215,303.359 331.582 C 303.930 332.000,303.468 333.137,302.828 332.892 C 302.549 332.784,302.487 332.857,302.603 333.158 C 302.737 333.508,302.702 333.521,302.369 333.245 C 302.082 333.007,302.056 332.870,302.271 332.737 C 302.470 332.614,302.349 332.412,301.900 332.119 C 301.534 331.879,301.173 331.743,301.098 331.818 C 301.024 331.893,301.194 332.028,301.478 332.118 C 301.961 332.271,301.971 332.335,301.643 333.120 C 301.450 333.582,301.358 334.025,301.438 334.105 C 301.518 334.185,301.255 334.263,300.854 334.279 C 300.426 334.296,300.307 334.355,300.566 334.423 C 300.808 334.486,300.941 334.644,300.861 334.773 C 300.781 334.902,300.592 334.932,300.440 334.838 C 300.261 334.728,300.223 334.818,300.330 335.097 C 300.421 335.334,300.392 335.462,300.264 335.384 C 300.138 335.306,299.964 335.356,299.878 335.496 C 299.791 335.636,299.552 335.750,299.345 335.750 C 299.139 335.750,299.035 335.645,299.114 335.517 C 299.193 335.389,299.160 335.224,299.040 335.150 C 298.920 335.076,298.834 335.321,298.849 335.695 C 298.869 336.221,298.747 336.393,298.309 336.455 C 297.997 336.500,297.807 336.640,297.886 336.768 C 297.965 336.896,297.859 337.000,297.652 337.000 C 297.377 337.000,297.300 336.794,297.369 336.246 C 297.425 335.804,297.365 335.554,297.223 335.641 C 297.091 335.723,297.009 336.238,297.041 336.785 L 297.100 337.780 313.112 337.691 C 332.098 337.586,331.701 337.647,334.900 334.308 C 337.700 331.387,337.794 330.562,337.697 310.000 C 337.655 301.269,337.594 294.497,337.561 294.952 M331.000 302.473 C 331.000 302.642,330.916 302.728,330.813 302.666 C 330.709 302.604,330.480 302.709,330.303 302.901 C 329.883 303.355,330.266 303.351,330.889 302.895 C 331.156 302.700,331.290 302.457,331.187 302.354 C 331.084 302.251,331.000 302.305,331.000 302.473 M331.604 304.589 C 331.517 304.815,331.342 305.000,331.214 305.000 C 331.087 305.000,331.108 304.766,331.261 304.479 C 331.580 303.884,331.842 303.969,331.604 304.589 M328.112 307.479 C 328.190 307.604,328.117 307.753,327.952 307.808 C 327.774 307.867,327.847 307.984,328.130 308.092 C 328.394 308.194,328.530 308.196,328.432 308.099 C 328.334 308.001,328.380 307.770,328.533 307.586 C 328.747 307.327,328.714 307.250,328.391 307.250 C 328.160 307.250,328.034 307.353,328.112 307.479 M326.872 308.004 C 326.786 308.144,326.611 308.193,326.483 308.114 C 326.355 308.035,326.142 308.037,326.011 308.118 C 325.721 308.298,325.954 309.000,326.303 309.000 C 326.441 309.000,326.486 308.825,326.405 308.612 C 326.323 308.399,326.354 308.285,326.475 308.359 C 326.595 308.434,326.832 308.327,327.002 308.122 C 327.172 307.918,327.248 307.750,327.170 307.750 C 327.093 307.750,326.959 307.864,326.872 308.004 M325.276 309.177 C 325.370 309.739,325.209 309.971,324.813 309.844 C 324.466 309.732,324.448 309.755,324.727 309.953 C 325.157 310.259,325.811 310.051,325.583 309.681 C 325.480 309.515,325.572 309.474,325.826 309.572 C 326.050 309.658,326.312 309.592,326.407 309.427 C 326.502 309.261,326.491 309.205,326.382 309.304 C 326.273 309.402,325.972 309.369,325.714 309.230 C 325.455 309.092,325.258 309.068,325.276 309.177 M323.911 311.620 C 323.700 312.172,323.967 312.633,324.304 312.296 C 324.463 312.137,324.466 311.896,324.313 311.622 C 324.089 311.221,324.065 311.221,323.911 311.620 M322.574 312.129 C 322.337 312.385,322.346 312.483,322.615 312.587 C 322.804 312.659,323.019 312.560,323.093 312.367 C 323.278 311.885,322.942 311.730,322.574 312.129 M319.625 316.094 C 319.350 316.256,319.088 316.553,319.042 316.754 C 318.997 316.956,318.830 317.201,318.671 317.299 C 318.505 317.401,318.609 317.461,318.913 317.438 C 319.236 317.413,319.396 317.271,319.321 317.074 C 319.252 316.896,319.317 316.750,319.464 316.750 C 319.612 316.750,319.853 316.525,320.000 316.250 C 320.147 315.975,320.236 315.761,320.196 315.775 C 320.157 315.788,319.900 315.932,319.625 316.094 M313.789 321.994 C 313.647 322.404,313.617 322.793,313.723 322.858 C 313.830 322.924,313.918 322.842,313.919 322.677 C 313.920 322.511,314.003 322.122,314.103 321.813 C 314.374 320.969,314.089 321.135,313.789 321.994 M312.630 322.084 C 312.932 322.514,312.930 322.622,312.620 322.854 C 312.352 323.055,312.329 323.222,312.528 323.500 C 312.755 323.816,312.775 323.807,312.656 323.438 C 312.563 323.146,312.648 323.000,312.910 323.000 C 313.187 323.000,313.250 322.871,313.122 322.563 C 313.022 322.322,312.935 322.003,312.929 321.854 C 312.922 321.705,312.773 321.583,312.598 321.583 C 312.351 321.583,312.358 321.695,312.630 322.084 M309.500 325.627 C 309.500 325.832,309.675 326.000,309.890 326.000 C 310.121 326.000,310.207 326.118,310.101 326.289 C 309.991 326.467,310.033 326.509,310.211 326.399 C 310.582 326.170,310.587 326.185,310.000 325.683 C 309.582 325.325,309.500 325.316,309.500 325.627 M129.822 326.625 C 129.823 327.313,129.872 327.564,129.929 327.184 C 129.987 326.804,129.985 326.242,129.926 325.934 C 129.867 325.627,129.820 325.938,129.822 326.625 M308.981 325.813 C 308.836 326.287,308.830 326.770,308.969 326.856 C 309.065 326.915,309.167 326.691,309.194 326.357 C 309.233 325.882,309.080 325.490,308.981 325.813 M305.050 331.300 C 304.890 331.460,304.675 331.509,304.574 331.407 C 304.472 331.306,304.552 331.123,304.750 331.000 C 305.217 330.711,305.428 330.922,305.050 331.300 M295.050 336.300 C 294.885 336.465,294.750 336.712,294.750 336.848 C 294.750 336.984,294.920 336.877,295.129 336.610 C 295.341 336.338,295.478 336.276,295.441 336.469 C 295.405 336.658,295.509 336.862,295.673 336.922 C 295.850 336.987,295.955 336.822,295.932 336.516 C 295.889 335.940,295.504 335.846,295.050 336.300 M140.563 337.679 C 140.941 337.736,141.559 337.736,141.938 337.679 C 142.316 337.622,142.006 337.575,141.250 337.575 C 140.494 337.575,140.184 337.622,140.563 337.679 " stroke="none" fill="#4f64c0" fill-rule="evenodd"></path><path id="path4" d="" stroke="none" fill="#493999" fill-rule="evenodd"></path></g></svg>