<svg width="103" height="32" viewBox="0 0 103 32" fill="none" xmlns="http://www.w3.org/2000/svg">
<path fill-rule="evenodd" clip-rule="evenodd" d="M0.922857 0C0.413177 0 0 0.413179 0 0.922858V21.1724C0 21.6821 0.413179 22.0952 0.922858 22.0952H9.90455V30.5421C9.90455 31.0415 9.90455 31.2913 9.99866 31.4834C10.0888 31.6673 10.2375 31.816 10.4214 31.9061C10.6135 32.0002 10.8632 32.0002 11.3627 32.0002H30.5417C31.0411 32.0002 31.2908 32.0002 31.4829 31.9061C31.6669 31.816 31.8156 31.6673 31.9057 31.4834C31.9998 31.2913 31.9998 31.0415 31.9998 30.5421V11.3631C31.9998 10.8636 31.9998 10.6139 31.9057 10.4218C31.8156 10.2379 31.6669 10.0892 31.4829 9.99908C31.2908 9.90498 31.0411 9.90498 30.5417 9.90498H22.0952V0.922857C22.0952 0.413177 21.6821 0 21.1724 0H0.922857Z" fill="#643EFF"/>
<g filter="url(#filter0_dddddd)">
<path d="M9.8382 11.2865C9.8382 10.787 9.8382 10.5373 9.9323 10.3452C10.0224 10.1613 10.1711 10.0126 10.3551 9.92248C10.5471 9.82837 10.7969 9.82837 11.2963 9.82837H22.0953V20.4738C22.0953 20.9744 22.0953 21.2247 21.9971 21.35C21.9039 21.4689 21.7586 21.5346 21.6078 21.5261C21.4488 21.5171 21.2608 21.3519 20.8849 21.0214L16.4481 17.1209C16.2813 16.9742 16.1979 16.9009 16.1044 16.8717C16.0148 16.8437 15.9187 16.8437 15.8291 16.8717C15.7356 16.9009 15.6522 16.9742 15.4854 17.1209L9.8382 22.0855V11.2865Z" fill="#2E00B2"/>
</g>
<path d="M41.2776 22.4976V11.7091H46.0653C47.1867 11.7091 48.0493 11.9841 48.6532 12.534C49.257 13.0732 49.559 13.8873 49.559 14.9764C49.559 15.7312 49.3487 16.4051 48.9282 16.9982C48.5184 17.5805 47.9415 17.9525 47.1975 18.1142L50.0766 22.4976H47.8606L45.3374 18.4216H43.0568V22.4976H41.2776ZM43.0568 16.9659H45.5638C46.9764 16.9659 47.6827 16.335 47.6827 15.0734C47.6827 14.4911 47.5425 14.0383 47.2622 13.7148C46.9818 13.3805 46.5128 13.2133 45.855 13.2133H43.0568V16.9659ZM54.4767 22.7402C53.2797 22.7402 52.3254 22.3789 51.6138 21.6565C50.9129 20.9232 50.5624 19.8665 50.5624 18.4863C50.5624 17.0737 50.8913 16.0062 51.5491 15.2837C52.2176 14.5504 53.145 14.1838 54.3311 14.1838C55.2045 14.1838 55.9108 14.3779 56.45 14.7661C56.9891 15.1543 57.3773 15.6988 57.6145 16.3997C57.8625 17.0899 57.9812 17.8986 57.9704 18.8259H52.2608C52.3147 19.6239 52.5519 20.2331 52.9724 20.6537C53.393 21.0634 53.986 21.2683 54.7516 21.2683C55.2908 21.2683 55.7814 21.2036 56.2235 21.0742C56.6764 20.934 57.0592 20.7777 57.3719 20.6051V22.1902C56.9837 22.3628 56.5524 22.4976 56.078 22.5946C55.6035 22.6917 55.0697 22.7402 54.4767 22.7402ZM54.2826 15.5748C53.7326 15.5748 53.2905 15.7204 52.9563 16.0116C52.622 16.2919 52.4063 16.8095 52.3093 17.5643H56.2397C56.175 16.8742 55.9809 16.3728 55.6574 16.0601C55.3447 15.7366 54.8864 15.5748 54.2826 15.5748ZM61.8965 22.7402C61.3466 22.7402 60.8182 22.6647 60.3114 22.5137C59.8046 22.3628 59.3894 22.0986 59.066 21.7212C58.7425 21.3438 58.5807 20.8154 58.5807 20.1361C58.5807 19.2411 58.8395 18.5779 59.3571 18.1466C59.8855 17.7045 60.6079 17.4834 61.5245 17.4834C62.0529 17.4834 62.5165 17.5374 62.9155 17.6452C63.3253 17.753 63.6703 17.8878 63.9507 18.0495V17.2893C63.9507 16.7178 63.7728 16.3027 63.4169 16.0439C63.0719 15.7743 62.5866 15.6395 61.9612 15.6395C61.4975 15.6395 61.0231 15.715 60.5378 15.866C60.0634 16.0062 59.6698 16.2056 59.3571 16.4644V14.8793C59.659 14.6852 60.0957 14.5235 60.6672 14.3941C61.2387 14.2647 61.8372 14.2 62.4626 14.2C62.9694 14.2 63.4654 14.2809 63.9507 14.4426C64.4467 14.6044 64.8511 14.8847 65.1638 15.2837C65.4873 15.6827 65.649 16.2218 65.649 16.9012L65.6328 20.7831C65.6328 21.3114 65.4657 21.7158 65.1314 21.9961C64.8079 22.2765 64.3658 22.4706 63.8051 22.5784C63.2444 22.6863 62.6082 22.7402 61.8965 22.7402ZM60.2629 20.0552C60.2629 20.3787 60.3545 20.6429 60.5378 20.8478C60.7212 21.0418 60.9476 21.1874 61.2172 21.2845C61.4975 21.3707 61.7887 21.4139 62.0906 21.4139C62.716 21.4139 63.1797 21.3707 63.4816 21.2845C63.7943 21.1874 63.9507 20.9879 63.9507 20.686V19.1171C63.7027 19.0092 63.4223 18.923 63.1096 18.8583C62.8077 18.7936 62.4842 18.7612 62.1391 18.7612C60.8883 18.7612 60.2629 19.1926 60.2629 20.0552ZM70.6554 22.7402C70.1594 22.7402 69.6742 22.6755 69.1997 22.5461C68.7253 22.4275 68.2939 22.2118 67.9057 21.8991C67.5283 21.5756 67.221 21.1281 66.9838 20.5566C66.7573 19.9851 66.6441 19.2465 66.6441 18.3407C66.6441 17.0683 66.9568 16.0601 67.5823 15.316C68.2077 14.5612 69.1566 14.1838 70.429 14.1838C70.677 14.1838 70.9951 14.2216 71.3833 14.297C71.7715 14.3725 72.1327 14.4857 72.467 14.6367V10.9813H74.1491V20.7831C74.1491 21.1281 74.0413 21.4246 73.8256 21.6727C73.6208 21.9207 73.3458 22.1255 73.0007 22.2873C72.6557 22.4383 72.2783 22.5515 71.8685 22.627C71.4588 22.7024 71.0544 22.7402 70.6554 22.7402ZM70.7039 21.2683C71.1892 21.2683 71.6043 21.209 71.9494 21.0904C72.2944 20.9718 72.467 20.8154 72.467 20.6213V16.1086C72.1866 15.9469 71.8847 15.8282 71.5612 15.7528C71.2485 15.6773 70.952 15.6395 70.6716 15.6395C69.8736 15.6395 69.2914 15.8768 68.9247 16.3512C68.5581 16.8149 68.3748 17.4888 68.3748 18.373C68.3748 18.9122 68.4395 19.4028 68.5689 19.8449C68.6983 20.2762 68.9301 20.6213 69.2644 20.8801C69.6095 21.1389 70.0893 21.2683 70.7039 21.2683ZM78.5153 22.7402C77.9653 22.7402 77.437 22.6647 76.9301 22.5137C76.4233 22.3628 76.0082 22.0986 75.6847 21.7212C75.3612 21.3438 75.1995 20.8154 75.1995 20.1361C75.1995 19.2411 75.4583 18.5779 75.9758 18.1466C76.5042 17.7045 77.2267 17.4834 78.1432 17.4834C78.6716 17.4834 79.1353 17.5374 79.5343 17.6452C79.944 17.753 80.2891 17.8878 80.5694 18.0495V17.2893C80.5694 16.7178 80.3915 16.3027 80.0357 16.0439C79.6906 15.7743 79.2054 15.6395 78.58 15.6395C78.1163 15.6395 77.6418 15.715 77.1566 15.866C76.6821 16.0062 76.2886 16.2056 75.9758 16.4644V14.8793C76.2778 14.6852 76.7145 14.5235 77.286 14.3941C77.8575 14.2647 78.456 14.2 79.0814 14.2C79.5882 14.2 80.0842 14.2809 80.5694 14.4426C81.0655 14.6044 81.4698 14.8847 81.7825 15.2837C82.106 15.6827 82.2678 16.2218 82.2678 16.9012L82.2516 20.7831C82.2516 21.3114 82.0844 21.7158 81.7502 21.9961C81.4267 22.2765 80.9846 22.4706 80.4239 22.5784C79.8631 22.6863 79.2269 22.7402 78.5153 22.7402ZM76.8816 20.0552C76.8816 20.3787 76.9733 20.6429 77.1566 20.8478C77.3399 21.0418 77.5663 21.1874 77.8359 21.2845C78.1163 21.3707 78.4074 21.4139 78.7094 21.4139C79.3348 21.4139 79.7984 21.3707 80.1004 21.2845C80.4131 21.1874 80.5694 20.9879 80.5694 20.686V19.1171C80.3214 19.0092 80.0411 18.923 79.7284 18.8583C79.4264 18.7936 79.1029 18.7612 78.7579 18.7612C77.507 18.7612 76.8816 19.1926 76.8816 20.0552ZM87.1124 22.7402C86.5301 22.7402 85.9748 22.6863 85.4464 22.5784C84.9289 22.4814 84.5029 22.3035 84.1687 22.0447C83.8452 21.7751 83.6834 21.3923 83.6834 20.8963V11.1268H85.3656V14.7014C85.6891 14.5397 86.0503 14.4157 86.4493 14.3294C86.8482 14.2431 87.1825 14.2 87.4521 14.2C88.6814 14.2 89.6033 14.5666 90.2179 15.2999C90.8326 16.0331 91.1399 17.0521 91.1399 18.3569C91.1399 19.2411 91.0213 19.9689 90.7841 20.5404C90.5576 21.1119 90.2503 21.5594 89.8621 21.8829C89.4847 22.1956 89.0534 22.4167 88.5681 22.5461C88.0937 22.6755 87.6084 22.7402 87.1124 22.7402ZM87.0316 21.2683C87.6678 21.2683 88.1584 21.1389 88.5034 20.8801C88.8485 20.6213 89.0857 20.2762 89.2151 19.8449C89.3445 19.4136 89.4092 18.9392 89.4092 18.4216C89.4092 17.5266 89.2259 16.8418 88.8593 16.3674C88.4927 15.8822 87.9373 15.6395 87.1933 15.6395C86.9129 15.6395 86.6056 15.6773 86.2713 15.7528C85.9371 15.8282 85.6351 15.9469 85.3656 16.1086V20.4757C85.3656 20.6914 85.4518 20.8585 85.6244 20.9771C85.7969 21.085 86.0072 21.1605 86.2552 21.2036C86.514 21.2467 86.7728 21.2683 87.0316 21.2683ZM93.825 22.4976H92.1428V11.3047H93.825V22.4976ZM98.7413 22.7402C97.5444 22.7402 96.5901 22.3789 95.8784 21.6565C95.1775 20.9232 94.8271 19.8665 94.8271 18.4863C94.8271 17.0737 95.156 16.0062 95.8137 15.2837C96.4823 14.5504 97.4096 14.1838 98.5957 14.1838C99.4692 14.1838 100.175 14.3779 100.715 14.7661C101.254 15.1543 101.642 15.6988 101.879 16.3997C102.127 17.0899 102.246 17.8986 102.235 18.8259H96.5254C96.5793 19.6239 96.8165 20.2331 97.2371 20.6537C97.6576 21.0634 98.2507 21.2683 99.0163 21.2683C99.5554 21.2683 100.046 21.2036 100.488 21.0742C100.941 20.934 101.324 20.7777 101.637 20.6051V22.1902C101.248 22.3628 100.817 22.4976 100.343 22.5946C99.8681 22.6917 99.3344 22.7402 98.7413 22.7402ZM98.5472 15.5748C97.9973 15.5748 97.5552 15.7204 97.2209 16.0116C96.8866 16.2919 96.671 16.8095 96.5739 17.5643H100.504C100.44 16.8742 100.246 16.3728 99.9221 16.0601C99.6094 15.7366 99.1511 15.5748 98.5472 15.5748Z" fill="#643EFF"/>
<defs>
<filter id="filter0_dddddd" x="6.72355" y="9.82837" width="18.4864" height="19.1785" filterUnits="userSpaceOnUse" color-interpolation-filters="sRGB">
<feFlood flood-opacity="0" result="BackgroundImageFix"/>
<feColorMatrix in="SourceAlpha" type="matrix" values="0 0 0 0 0 0 0 0 0 0 0 0 0 0 0 0 0 0 127 0" result="hardAlpha"/>
<feOffset dy="0.105343"/>
<feGaussianBlur stdDeviation="0.0430951"/>
<feColorMatrix type="matrix" values="0 0 0 0 0 0 0 0 0 0 0 0 0 0 0 0 0 0 0.0253031 0"/>
<feBlend mode="normal" in2="BackgroundImageFix" result="effect1_dropShadow"/>
<feColorMatrix in="SourceAlpha" type="matrix" values="0 0 0 0 0 0 0 0 0 0 0 0 0 0 0 0 0 0 127 0" result="hardAlpha"/>
<feOffset dy="0.253155"/>
<feGaussianBlur stdDeviation="0.103563"/>
<feColorMatrix type="matrix" values="0 0 0 0 0 0 0 0 0 0 0 0 0 0 0 0 0 0 0.0363503 0"/>
<feBlend mode="normal" in2="effect1_dropShadow" result="effect2_dropShadow"/>
<feColorMatrix in="SourceAlpha" type="matrix" values="0 0 0 0 0 0 0 0 0 0 0 0 0 0 0 0 0 0 127 0" result="hardAlpha"/>
<feOffset dy="0.476668"/>
<feGaussianBlur stdDeviation="0.195001"/>
<feColorMatrix type="matrix" values="0 0 0 0 0 0 0 0 0 0 0 0 0 0 0 0 0 0 0.045 0"/>
<feBlend mode="normal" in2="effect2_dropShadow" result="effect3_dropShadow"/>
<feColorMatrix in="SourceAlpha" type="matrix" values="0 0 0 0 0 0 0 0 0 0 0 0 0 0 0 0 0 0 127 0" result="hardAlpha"/>
<feOffset dy="0.850295"/>
<feGaussianBlur stdDeviation="0.347848"/>
<feColorMatrix type="matrix" values="0 0 0 0 0 0 0 0 0 0 0 0 0 0 0 0 0 0 0.0536497 0"/>
<feBlend mode="normal" in2="effect3_dropShadow" result="effect4_dropShadow"/>
<feColorMatrix in="SourceAlpha" type="matrix" values="0 0 0 0 0 0 0 0 0 0 0 0 0 0 0 0 0 0 127 0" result="hardAlpha"/>
<feOffset dy="1.59038"/>
<feGaussianBlur stdDeviation="0.650612"/>
<feColorMatrix type="matrix" values="0 0 0 0 0.794414 0 0 0 0 0.554046 0 0 0 0 0.983276 0 0 0 0.0646969 0"/>
<feBlend mode="normal" in2="effect4_dropShadow" result="effect5_dropShadow"/>
<feColorMatrix in="SourceAlpha" type="matrix" values="0 0 0 0 0 0 0 0 0 0 0 0 0 0 0 0 0 0 127 0" result="hardAlpha"/>
<feOffset dy="3.80678"/>
<feGaussianBlur stdDeviation="1.55732"/>
<feColorMatrix type="matrix" values="0 0 0 0 0.459943 0 0 0 0 0.420958 0 0 0 0 0.908276 0 0 0 0.09 0"/>
<feBlend mode="normal" in2="effect5_dropShadow" result="effect6_dropShadow"/>
<feBlend mode="normal" in="SourceGraphic" in2="effect6_dropShadow" result="shape"/>
</filter>
</defs>
</svg>
