<svg width="176" height="176" viewBox="0 0 176 176" fill="none" xmlns="http://www.w3.org/2000/svg">
<rect width="176" height="176" rx="2" fill="white"/>
<path d="M149.359 86.672C149.359 75.6095 140.391 66.6416 129.329 66.6416H63.6657C52.6032 66.6416 43.6353 75.6095 43.6353 86.672C43.6353 97.7345 52.6032 106.702 63.6657 106.702H129.329C140.391 106.702 149.359 97.7345 149.359 86.672Z" fill="#FFC700" stroke="black" stroke-width="1.32069"/>
<path d="M149.578 66.4211H42.9734V106.922H149.578V66.4211Z" stroke="black" stroke-width="1.32069"/>
<rect width="4.84252" height="4.84252" transform="matrix(-1 0 0 1 152 64.0002)" fill="white" stroke="black" stroke-width="1.32069"/>
<rect width="4.84252" height="4.84252" transform="matrix(-1 0 0 1 152 104.061)" fill="white" stroke="black" stroke-width="1.32069"/>
<rect width="4.84252" height="4.84252" transform="matrix(-1 0 0 1 44.9785 64)" fill="white" stroke="black" stroke-width="1.32069"/>
<rect width="4.84252" height="4.84252" transform="matrix(-1 0 0 1 44.9785 104.061)" fill="white" stroke="black" stroke-width="1.32069"/>
<path d="M79.7429 93.0054L77.2789 88.6534H76.2229V93.0054H73.9829V81.8374H78.1749C79.0389 81.8374 79.7749 81.992 80.3829 82.3014C80.9909 82.6 81.4442 83.0107 81.7429 83.5334C82.0522 84.0454 82.2069 84.6214 82.2069 85.2614C82.2069 85.9974 81.9936 86.664 81.5669 87.2614C81.1402 87.848 80.5056 88.2534 79.6629 88.4774L82.3349 93.0054H79.7429ZM76.2229 86.9734H78.0949C78.7029 86.9734 79.1562 86.8294 79.4549 86.5414C79.7536 86.2427 79.9029 85.832 79.9029 85.3094C79.9029 84.7974 79.7536 84.4027 79.4549 84.1254C79.1562 83.8374 78.7029 83.6934 78.0949 83.6934H76.2229V86.9734ZM92.4729 88.3814C92.4729 88.7014 92.4516 88.9894 92.4089 89.2454H85.9289C85.9822 89.8854 86.2062 90.3867 86.6009 90.7494C86.9956 91.112 87.4809 91.2934 88.0569 91.2934C88.8889 91.2934 89.4809 90.936 89.8329 90.2214H92.2489C91.9929 91.0747 91.5022 91.7787 90.7769 92.3334C90.0516 92.8774 89.1609 93.1494 88.1049 93.1494C87.2516 93.1494 86.4836 92.9627 85.8009 92.5894C85.1289 92.2054 84.6009 91.6667 84.2169 90.9734C83.8436 90.28 83.6569 89.48 83.6569 88.5734C83.6569 87.656 83.8436 86.8507 84.2169 86.1574C84.5902 85.464 85.1129 84.9307 85.7849 84.5574C86.4569 84.184 87.2302 83.9974 88.1049 83.9974C88.9476 83.9974 89.6996 84.1787 90.3609 84.5414C91.0329 84.904 91.5502 85.4214 91.9129 86.0934C92.2862 86.7547 92.4729 87.5174 92.4729 88.3814ZM90.1529 87.7414C90.1422 87.1654 89.9342 86.7067 89.5289 86.3654C89.1236 86.0134 88.6276 85.8374 88.0409 85.8374C87.4862 85.8374 87.0169 86.008 86.6329 86.3494C86.2596 86.68 86.0302 87.144 85.9449 87.7414H90.1529ZM93.5319 88.5414C93.5319 87.6454 93.7079 86.8507 94.0599 86.1574C94.4226 85.464 94.9079 84.9307 95.5159 84.5574C96.1346 84.184 96.8226 83.9974 97.5799 83.9974C98.2412 83.9974 98.8172 84.1307 99.3079 84.3974C99.8092 84.664 100.209 85 100.508 85.4054V84.1414H102.764V93.0054H100.508V91.7094C100.22 92.1254 99.8199 92.472 99.3079 92.7494C98.8066 93.016 98.2252 93.1494 97.5639 93.1494C96.8172 93.1494 96.1346 92.9574 95.5159 92.5734C94.9079 92.1894 94.4226 91.6507 94.0599 90.9574C93.7079 90.2534 93.5319 89.448 93.5319 88.5414ZM100.508 88.5734C100.508 88.0294 100.401 87.5654 100.188 87.1814C99.9746 86.7867 99.6866 86.488 99.3239 86.2854C98.9612 86.072 98.5719 85.9654 98.1559 85.9654C97.7399 85.9654 97.3559 86.0667 97.0039 86.2694C96.6519 86.472 96.3639 86.7707 96.1399 87.1654C95.9266 87.5494 95.8199 88.008 95.8199 88.5414C95.8199 89.0747 95.9266 89.544 96.1399 89.9494C96.3639 90.344 96.6519 90.648 97.0039 90.8614C97.3666 91.0747 97.7506 91.1814 98.1559 91.1814C98.5719 91.1814 98.9612 91.08 99.3239 90.8774C99.6866 90.664 99.9746 90.3654 100.188 89.9814C100.401 89.5867 100.508 89.1174 100.508 88.5734ZM104.376 88.5734C104.376 87.656 104.562 86.856 104.936 86.1734C105.309 85.48 105.826 84.9467 106.488 84.5734C107.149 84.1894 107.906 83.9974 108.76 83.9974C109.858 83.9974 110.765 84.2747 111.48 84.8294C112.205 85.3734 112.69 86.1414 112.936 87.1334H110.52C110.392 86.7494 110.173 86.4507 109.864 86.2374C109.565 86.0134 109.192 85.9014 108.744 85.9014C108.104 85.9014 107.597 86.136 107.224 86.6054C106.85 87.064 106.664 87.72 106.664 88.5734C106.664 89.416 106.85 90.072 107.224 90.5414C107.597 91 108.104 91.2294 108.744 91.2294C109.65 91.2294 110.242 90.824 110.52 90.0134H112.936C112.69 90.9734 112.205 91.736 111.48 92.3014C110.754 92.8667 109.848 93.1494 108.76 93.1494C107.906 93.1494 107.149 92.9627 106.488 92.5894C105.826 92.2054 105.309 91.672 104.936 90.9894C104.562 90.296 104.376 89.4907 104.376 88.5734ZM117.185 85.9814V90.2694C117.185 90.568 117.254 90.7867 117.393 90.9254C117.542 91.0534 117.787 91.1174 118.129 91.1174H119.169V93.0054H117.761C115.873 93.0054 114.929 92.088 114.929 90.2534V85.9814H113.873V84.1414H114.929V81.9494H117.185V84.1414H119.169V85.9814H117.185Z" fill="black"/>
<path d="M42.9572 86.6451C43.215 86.903 43.215 87.3211 42.9572 87.579L38.7548 91.7814C38.4969 92.0393 38.0788 92.0393 37.8209 91.7814C37.563 91.5235 37.563 91.1054 37.8209 90.8475L41.5564 87.1121L37.8209 83.3766C37.563 83.1187 37.563 82.7006 37.8209 82.4427C38.0788 82.1848 38.4969 82.1848 38.7548 82.4427L42.9572 86.6451ZM23.5337 87.579C23.2758 87.3211 23.2758 86.903 23.5337 86.6451L27.7361 82.4427C27.9939 82.1848 28.4121 82.1848 28.6699 82.4427C28.9278 82.7006 28.9278 83.1187 28.6699 83.3766L24.9345 87.1121L28.6699 90.8475C28.9278 91.1054 28.9278 91.5235 28.6699 91.7814C28.4121 92.0393 27.9939 92.0393 27.7361 91.7814L23.5337 87.579ZM42.4902 87.7724H24.0006V86.4517H42.4902V87.7724Z" fill="black"/>
</svg>
