<svg width="909" height="336" viewBox="0 0 909 336" fill="none" xmlns="http://www.w3.org/2000/svg">
<path d="M484.185 180.746C484.185 184.899 480.818 188.265 476.666 188.265C472.513 188.265 469.146 184.899 469.146 180.746C469.146 176.593 472.513 173.227 476.666 173.227C480.818 173.227 484.185 176.593 484.185 180.746Z" fill="black"/>
<path d="M515.514 212.076C515.514 216.229 512.148 219.595 507.995 219.595C503.842 219.595 500.476 216.229 500.476 212.076C500.476 207.923 503.842 204.557 507.995 204.557C512.148 204.557 515.514 207.923 515.514 212.076Z" fill="black"/>
<path d="M484.467 4.97789C484.467 9.1306 481.101 12.497 476.948 12.497C472.796 12.497 469.429 9.1306 469.429 4.97789C469.429 0.825179 472.796 -2.54126 476.948 -2.54126C481.101 -2.54126 484.467 0.825179 484.467 4.97789Z" fill="black"/>
<path d="M515.797 36.3079C515.797 40.4606 512.43 43.827 508.278 43.827C504.125 43.827 500.759 40.4606 500.759 36.3079C500.759 32.1552 504.125 28.7887 508.278 28.7887C512.43 28.7887 515.797 32.1552 515.797 36.3079Z" fill="black"/>
<path d="M484.467 63.1477C484.467 67.3004 481.101 70.6669 476.948 70.6669C472.796 70.6669 469.429 67.3004 469.429 63.1477C469.429 58.995 472.796 55.6286 476.948 55.6286C481.101 55.6286 484.467 58.995 484.467 63.1477Z" fill="black"/>
<path d="M515.797 94.4777C515.797 98.6304 512.43 101.997 508.278 101.997C504.125 101.997 500.759 98.6304 500.759 94.4777C500.759 90.325 504.125 86.9586 508.278 86.9586C512.43 86.9586 515.797 90.325 515.797 94.4777Z" fill="black"/>
<path d="M484.467 122.022C484.467 126.175 481.101 129.541 476.948 129.541C472.796 129.541 469.429 126.175 469.429 122.022C469.429 117.869 472.796 114.503 476.948 114.503C481.101 114.503 484.467 117.869 484.467 122.022Z" fill="black"/>
<path d="M515.797 153.352C515.797 157.505 512.43 160.871 508.278 160.871C504.125 160.871 500.759 157.505 500.759 153.352C500.759 149.199 504.125 145.833 508.278 145.833C512.43 145.833 515.797 149.199 515.797 153.352Z" fill="black"/>
<path d="M543.341 4.97789C543.341 9.1306 539.975 12.497 535.822 12.497C531.669 12.497 528.303 9.1306 528.303 4.97789C528.303 0.825179 531.669 -2.54126 535.822 -2.54126C539.975 -2.54126 543.341 0.825179 543.341 4.97789Z" fill="black"/>
<path d="M574.671 36.3079C574.671 40.4606 571.304 43.827 567.151 43.827C562.999 43.827 559.632 40.4606 559.632 36.3079C559.632 32.1552 562.999 28.7887 567.151 28.7887C571.304 28.7887 574.671 32.1552 574.671 36.3079Z" fill="black"/>
<path d="M543.341 63.1477C543.341 67.3004 539.975 70.6669 535.822 70.6669C531.669 70.6669 528.303 67.3004 528.303 63.1477C528.303 58.995 531.669 55.6286 535.822 55.6286C539.975 55.6286 543.341 58.995 543.341 63.1477Z" fill="black"/>
<path d="M574.671 94.4777C574.671 98.6304 571.304 101.997 567.151 101.997C562.999 101.997 559.632 98.6304 559.632 94.4777C559.632 90.325 562.999 86.9586 567.151 86.9586C571.304 86.9586 574.671 90.325 574.671 94.4777Z" fill="black"/>
<path d="M543.341 122.022C543.341 126.175 539.975 129.541 535.822 129.541C531.669 129.541 528.303 126.175 528.303 122.022C528.303 117.869 531.669 114.503 535.822 114.503C539.975 114.503 543.341 117.869 543.341 122.022Z" fill="black"/>
<path d="M574.671 153.352C574.671 157.505 571.304 160.871 567.151 160.871C562.999 160.871 559.632 157.505 559.632 153.352C559.632 149.199 562.999 145.833 567.151 145.833C571.304 145.833 574.671 149.199 574.671 153.352Z" fill="black"/>
<path d="M602.217 4.97789C602.217 9.1306 598.85 12.497 594.698 12.497C590.545 12.497 587.178 9.1306 587.178 4.97789C587.178 0.825179 590.545 -2.54126 594.698 -2.54126C598.85 -2.54126 602.217 0.825179 602.217 4.97789Z" fill="black"/>
<path d="M633.546 36.3079C633.546 40.4606 630.18 43.827 626.027 43.827C621.874 43.827 618.508 40.4606 618.508 36.3079C618.508 32.1552 621.874 28.7887 626.027 28.7887C630.18 28.7887 633.546 32.1552 633.546 36.3079Z" fill="black"/>
<path d="M602.217 63.1477C602.217 67.3004 598.85 70.6669 594.698 70.6669C590.545 70.6669 587.178 67.3004 587.178 63.1477C587.178 58.995 590.545 55.6286 594.698 55.6286C598.85 55.6286 602.217 58.995 602.217 63.1477Z" fill="black"/>
<path d="M633.546 94.4777C633.546 98.6304 630.18 101.997 626.027 101.997C621.874 101.997 618.508 98.6304 618.508 94.4777C618.508 90.325 621.874 86.9586 626.027 86.9586C630.18 86.9586 633.546 90.325 633.546 94.4777Z" fill="black"/>
<path d="M602.217 122.022C602.217 126.175 598.85 129.541 594.698 129.541C590.545 129.541 587.178 126.175 587.178 122.022C587.178 117.869 590.545 114.503 594.698 114.503C598.85 114.503 602.217 117.869 602.217 122.022Z" fill="black"/>
<path d="M633.546 153.352C633.546 157.505 630.18 160.871 626.027 160.871C621.874 160.871 618.508 157.505 618.508 153.352C618.508 149.199 621.874 145.833 626.027 145.833C630.18 145.833 633.546 149.199 633.546 153.352Z" fill="black"/>
<path d="M661.091 4.97789C661.091 9.1306 657.724 12.497 653.571 12.497C649.419 12.497 646.052 9.1306 646.052 4.97789C646.052 0.825179 649.419 -2.54126 653.571 -2.54126C657.724 -2.54126 661.091 0.825179 661.091 4.97789Z" fill="black"/>
<path d="M692.42 36.3079C692.42 40.4606 689.054 43.827 684.901 43.827C680.748 43.827 677.382 40.4606 677.382 36.3079C677.382 32.1552 680.748 28.7887 684.901 28.7887C689.054 28.7887 692.42 32.1552 692.42 36.3079Z" fill="black"/>
<path d="M661.091 63.1477C661.091 67.3004 657.724 70.6669 653.571 70.6669C649.419 70.6669 646.052 67.3004 646.052 63.1477C646.052 58.995 649.419 55.6286 653.571 55.6286C657.724 55.6286 661.091 58.995 661.091 63.1477Z" fill="black"/>
<path d="M692.42 94.4777C692.42 98.6304 689.054 101.997 684.901 101.997C680.748 101.997 677.382 98.6304 677.382 94.4777C677.382 90.325 680.748 86.9586 684.901 86.9586C689.054 86.9586 692.42 90.325 692.42 94.4777Z" fill="black"/>
<path d="M661.091 122.022C661.091 126.175 657.724 129.541 653.571 129.541C649.419 129.541 646.052 126.175 646.052 122.022C646.052 117.869 649.419 114.503 653.571 114.503C657.724 114.503 661.091 117.869 661.091 122.022Z" fill="black"/>
<path d="M692.42 153.352C692.42 157.505 689.054 160.871 684.901 160.871C680.748 160.871 677.382 157.505 677.382 153.352C677.382 149.199 680.748 145.833 684.901 145.833C689.054 145.833 692.42 149.199 692.42 153.352Z" fill="black"/>
<path d="M719.966 4.97789C719.966 9.1306 716.6 12.497 712.447 12.497C708.294 12.497 704.928 9.1306 704.928 4.97789C704.928 0.825179 708.294 -2.54126 712.447 -2.54126C716.6 -2.54126 719.966 0.825179 719.966 4.97789Z" fill="black"/>
<path d="M751.296 36.3079C751.296 40.4606 747.929 43.827 743.777 43.827C739.624 43.827 736.258 40.4606 736.258 36.3079C736.258 32.1552 739.624 28.7887 743.777 28.7887C747.929 28.7887 751.296 32.1552 751.296 36.3079Z" fill="black"/>
<path d="M719.966 63.1477C719.966 67.3004 716.6 70.6669 712.447 70.6669C708.294 70.6669 704.928 67.3004 704.928 63.1477C704.928 58.995 708.294 55.6286 712.447 55.6286C716.6 55.6286 719.966 58.995 719.966 63.1477Z" fill="black"/>
<path d="M751.296 94.4777C751.296 98.6304 747.929 101.997 743.777 101.997C739.624 101.997 736.258 98.6304 736.258 94.4777C736.258 90.325 739.624 86.9586 743.777 86.9586C747.929 86.9586 751.296 90.325 751.296 94.4777Z" fill="black"/>
<path d="M719.966 122.022C719.966 126.175 716.6 129.541 712.447 129.541C708.294 129.541 704.928 126.175 704.928 122.022C704.928 117.869 708.294 114.503 712.447 114.503C716.6 114.503 719.966 117.869 719.966 122.022Z" fill="black"/>
<path d="M751.296 153.352C751.296 157.505 747.929 160.871 743.777 160.871C739.624 160.871 736.258 157.505 736.258 153.352C736.258 149.199 739.624 145.833 743.777 145.833C747.929 145.833 751.296 149.199 751.296 153.352Z" fill="black"/>
<path d="M778.84 4.97789C778.84 9.1306 775.474 12.497 771.321 12.497C767.168 12.497 763.802 9.1306 763.802 4.97789C763.802 0.825179 767.168 -2.54126 771.321 -2.54126C775.474 -2.54126 778.84 0.825179 778.84 4.97789Z" fill="black"/>
<path d="M810.169 36.3079C810.169 40.4606 806.803 43.827 802.65 43.827C798.498 43.827 795.131 40.4606 795.131 36.3079C795.131 32.1552 798.498 28.7887 802.65 28.7887C806.803 28.7887 810.169 32.1552 810.169 36.3079Z" fill="black"/>
<path d="M778.84 63.1477C778.84 67.3004 775.474 70.6669 771.321 70.6669C767.168 70.6669 763.802 67.3004 763.802 63.1477C763.802 58.995 767.168 55.6286 771.321 55.6286C775.474 55.6286 778.84 58.995 778.84 63.1477Z" fill="black"/>
<path d="M810.169 94.4777C810.169 98.6304 806.803 101.997 802.65 101.997C798.498 101.997 795.131 98.6304 795.131 94.4777C795.131 90.325 798.498 86.9586 802.65 86.9586C806.803 86.9586 810.169 90.325 810.169 94.4777Z" fill="black"/>
<path d="M778.84 122.022C778.84 126.175 775.474 129.541 771.321 129.541C767.168 129.541 763.802 126.175 763.802 122.022C763.802 117.869 767.168 114.503 771.321 114.503C775.474 114.503 778.84 117.869 778.84 122.022Z" fill="black"/>
<path d="M810.169 153.352C810.169 157.505 806.803 160.871 802.65 160.871C798.498 160.871 795.131 157.505 795.131 153.352C795.131 149.199 798.498 145.833 802.65 145.833C806.803 145.833 810.169 149.199 810.169 153.352Z" fill="black"/>
<path d="M837.728 4.97789C837.728 9.1306 834.361 12.497 830.209 12.497C826.056 12.497 822.689 9.1306 822.689 4.97789C822.689 0.825179 826.056 -2.54126 830.209 -2.54126C834.361 -2.54126 837.728 0.825179 837.728 4.97789Z" fill="black"/>
<path d="M869.057 36.3079C869.057 40.4606 865.691 43.827 861.538 43.827C857.385 43.827 854.019 40.4606 854.019 36.3079C854.019 32.1552 857.385 28.7887 861.538 28.7887C865.691 28.7887 869.057 32.1552 869.057 36.3079Z" fill="black"/>
<path d="M896.527 4.97789C896.527 9.1306 893.16 12.497 889.008 12.497C884.855 12.497 881.489 9.1306 881.489 4.97789C881.489 0.825179 884.855 -2.54126 889.008 -2.54126C893.16 -2.54126 896.527 0.825179 896.527 4.97789Z" fill="black"/>
<path d="M927.856 36.3079C927.856 40.4606 924.49 43.827 920.337 43.827C916.185 43.827 912.818 40.4606 912.818 36.3079C912.818 32.1552 916.185 28.7887 920.337 28.7887C924.49 28.7887 927.856 32.1552 927.856 36.3079Z" fill="black"/>
<path d="M837.728 63.1477C837.728 67.3004 834.361 70.6669 830.209 70.6669C826.056 70.6669 822.689 67.3004 822.689 63.1477C822.689 58.995 826.056 55.6286 830.209 55.6286C834.361 55.6286 837.728 58.995 837.728 63.1477Z" fill="black"/>
<path d="M869.057 94.4777C869.057 98.6304 865.691 101.997 861.538 101.997C857.385 101.997 854.019 98.6304 854.019 94.4777C854.019 90.325 857.385 86.9586 861.538 86.9586C865.691 86.9586 869.057 90.325 869.057 94.4777Z" fill="black"/>
<path d="M896.527 63.1477C896.527 67.3004 893.16 70.6669 889.008 70.6669C884.855 70.6669 881.489 67.3004 881.489 63.1477C881.489 58.995 884.855 55.6286 889.008 55.6286C893.16 55.6286 896.527 58.995 896.527 63.1477Z" fill="black"/>
<path d="M927.856 94.4777C927.856 98.6304 924.49 101.997 920.337 101.997C916.185 101.997 912.818 98.6304 912.818 94.4777C912.818 90.325 916.185 86.9586 920.337 86.9586C924.49 86.9586 927.856 90.325 927.856 94.4777Z" fill="black"/>
<path d="M837.728 122.022C837.728 126.175 834.361 129.541 830.209 129.541C826.056 129.541 822.689 126.175 822.689 122.022C822.689 117.869 826.056 114.503 830.209 114.503C834.361 114.503 837.728 117.869 837.728 122.022Z" fill="black"/>
<path d="M869.057 153.352C869.057 157.505 865.691 160.871 861.538 160.871C857.385 160.871 854.019 157.505 854.019 153.352C854.019 149.199 857.385 145.833 861.538 145.833C865.691 145.833 869.057 149.199 869.057 153.352Z" fill="black"/>
<path d="M896.527 122.022C896.527 126.175 893.16 129.541 889.008 129.541C884.855 129.541 881.489 126.175 881.489 122.022C881.489 117.869 884.855 114.503 889.008 114.503C893.16 114.503 896.527 117.869 896.527 122.022Z" fill="black"/>
<path d="M927.856 153.352C927.856 157.505 924.49 160.871 920.337 160.871C916.185 160.871 912.818 157.505 912.818 153.352C912.818 149.199 916.185 145.833 920.337 145.833C924.49 145.833 927.856 149.199 927.856 153.352Z" fill="black"/>
<path d="M484.185 238.916C484.185 243.068 480.818 246.435 476.666 246.435C472.513 246.435 469.146 243.068 469.146 238.916C469.146 234.763 472.513 231.396 476.666 231.396C480.818 231.396 484.185 234.763 484.185 238.916Z" fill="black"/>
<path d="M515.514 270.246C515.514 274.398 512.148 277.765 507.995 277.765C503.842 277.765 500.476 274.398 500.476 270.246C500.476 266.093 503.842 262.727 507.995 262.727C512.148 262.727 515.514 266.093 515.514 270.246Z" fill="black"/>
<path d="M484.185 297.79C484.185 301.943 480.818 305.31 476.666 305.31C472.513 305.31 469.146 301.943 469.146 297.79C469.146 293.638 472.513 290.271 476.666 290.271C480.818 290.271 484.185 293.638 484.185 297.79Z" fill="black"/>
<path d="M515.514 329.12C515.514 333.273 512.148 336.64 507.995 336.64C503.842 336.64 500.476 333.273 500.476 329.12C500.476 324.968 503.842 321.601 507.995 321.601C512.148 321.601 515.514 324.968 515.514 329.12Z" fill="black"/>
<path d="M543.059 180.746C543.059 184.899 539.692 188.265 535.539 188.265C531.387 188.265 528.02 184.899 528.02 180.746C528.02 176.593 531.387 173.227 535.539 173.227C539.692 173.227 543.059 176.593 543.059 180.746Z" fill="black"/>
<path d="M574.388 212.076C574.388 216.229 571.022 219.595 566.869 219.595C562.716 219.595 559.35 216.229 559.35 212.076C559.35 207.923 562.716 204.557 566.869 204.557C571.022 204.557 574.388 207.923 574.388 212.076Z" fill="black"/>
<path d="M543.059 238.916C543.059 243.068 539.692 246.435 535.539 246.435C531.387 246.435 528.02 243.068 528.02 238.916C528.02 234.763 531.387 231.396 535.539 231.396C539.692 231.396 543.059 234.763 543.059 238.916Z" fill="black"/>
<path d="M574.388 270.246C574.388 274.398 571.022 277.765 566.869 277.765C562.716 277.765 559.35 274.398 559.35 270.246C559.35 266.093 562.716 262.727 566.869 262.727C571.022 262.727 574.388 266.093 574.388 270.246Z" fill="black"/>
<path d="M543.059 297.79C543.059 301.943 539.692 305.31 535.539 305.31C531.387 305.31 528.02 301.943 528.02 297.79C528.02 293.638 531.387 290.271 535.539 290.271C539.692 290.271 543.059 293.638 543.059 297.79Z" fill="black"/>
<path d="M574.388 329.12C574.388 333.273 571.022 336.64 566.869 336.64C562.716 336.64 559.35 333.273 559.35 329.12C559.35 324.968 562.716 321.601 566.869 321.601C571.022 321.601 574.388 324.968 574.388 329.12Z" fill="black"/>
<path d="M601.934 180.746C601.934 184.899 598.568 188.265 594.415 188.265C590.262 188.265 586.896 184.899 586.896 180.746C586.896 176.593 590.262 173.227 594.415 173.227C598.568 173.227 601.934 176.593 601.934 180.746Z" fill="black"/>
<path d="M633.264 212.076C633.264 216.229 629.897 219.595 625.745 219.595C621.592 219.595 618.225 216.229 618.225 212.076C618.225 207.923 621.592 204.557 625.745 204.557C629.897 204.557 633.264 207.923 633.264 212.076Z" fill="black"/>
<path d="M601.934 238.916C601.934 243.068 598.568 246.435 594.415 246.435C590.262 246.435 586.896 243.068 586.896 238.916C586.896 234.763 590.262 231.396 594.415 231.396C598.568 231.396 601.934 234.763 601.934 238.916Z" fill="black"/>
<path d="M633.264 270.246C633.264 274.398 629.897 277.765 625.745 277.765C621.592 277.765 618.225 274.398 618.225 270.246C618.225 266.093 621.592 262.727 625.745 262.727C629.897 262.727 633.264 266.093 633.264 270.246Z" fill="black"/>
<path d="M601.934 297.79C601.934 301.943 598.568 305.31 594.415 305.31C590.262 305.31 586.896 301.943 586.896 297.79C586.896 293.638 590.262 290.271 594.415 290.271C598.568 290.271 601.934 293.638 601.934 297.79Z" fill="black"/>
<path d="M633.264 329.12C633.264 333.273 629.897 336.64 625.745 336.64C621.592 336.64 618.225 333.273 618.225 329.12C618.225 324.968 621.592 321.601 625.745 321.601C629.897 321.601 633.264 324.968 633.264 329.12Z" fill="black"/>
<path d="M660.81 180.746C660.81 184.899 657.444 188.265 653.291 188.265C649.138 188.265 645.772 184.899 645.772 180.746C645.772 176.593 649.138 173.227 653.291 173.227C657.444 173.227 660.81 176.593 660.81 180.746Z" fill="black"/>
<path d="M692.139 212.076C692.139 216.229 688.773 219.595 684.62 219.595C680.468 219.595 677.101 216.229 677.101 212.076C677.101 207.923 680.468 204.557 684.62 204.557C688.773 204.557 692.139 207.923 692.139 212.076Z" fill="black"/>
<path d="M660.81 238.916C660.81 243.068 657.444 246.435 653.291 246.435C649.138 246.435 645.772 243.068 645.772 238.916C645.772 234.763 649.138 231.396 653.291 231.396C657.444 231.396 660.81 234.763 660.81 238.916Z" fill="black"/>
<path d="M692.139 270.246C692.139 274.398 688.773 277.765 684.62 277.765C680.468 277.765 677.101 274.398 677.101 270.246C677.101 266.093 680.468 262.727 684.62 262.727C688.773 262.727 692.139 266.093 692.139 270.246Z" fill="black"/>
<path d="M660.81 297.79C660.81 301.943 657.444 305.31 653.291 305.31C649.138 305.31 645.772 301.943 645.772 297.79C645.772 293.638 649.138 290.271 653.291 290.271C657.444 290.271 660.81 293.638 660.81 297.79Z" fill="black"/>
<path d="M692.139 329.12C692.139 333.273 688.773 336.64 684.62 336.64C680.468 336.64 677.101 333.273 677.101 329.12C677.101 324.968 680.468 321.601 684.62 321.601C688.773 321.601 692.139 324.968 692.139 329.12Z" fill="black"/>
<path d="M719.684 180.746C719.684 184.899 716.317 188.265 712.165 188.265C708.012 188.265 704.645 184.899 704.645 180.746C704.645 176.593 708.012 173.227 712.165 173.227C716.317 173.227 719.684 176.593 719.684 180.746Z" fill="black"/>
<path d="M751.013 212.076C751.013 216.229 747.647 219.595 743.494 219.595C739.341 219.595 735.975 216.229 735.975 212.076C735.975 207.923 739.341 204.557 743.494 204.557C747.647 204.557 751.013 207.923 751.013 212.076Z" fill="black"/>
<path d="M719.684 238.916C719.684 243.068 716.317 246.435 712.165 246.435C708.012 246.435 704.645 243.068 704.645 238.916C704.645 234.763 708.012 231.396 712.165 231.396C716.317 231.396 719.684 234.763 719.684 238.916Z" fill="black"/>
<path d="M751.013 270.246C751.013 274.398 747.647 277.765 743.494 277.765C739.341 277.765 735.975 274.398 735.975 270.246C735.975 266.093 739.341 262.727 743.494 262.727C747.647 262.727 751.013 266.093 751.013 270.246Z" fill="black"/>
<path d="M719.684 297.79C719.684 301.943 716.317 305.31 712.165 305.31C708.012 305.31 704.645 301.943 704.645 297.79C704.645 293.638 708.012 290.271 712.165 290.271C716.317 290.271 719.684 293.638 719.684 297.79Z" fill="black"/>
<path d="M751.013 329.12C751.013 333.273 747.647 336.64 743.494 336.64C739.341 336.64 735.975 333.273 735.975 329.12C735.975 324.968 739.341 321.601 743.494 321.601C747.647 321.601 751.013 324.968 751.013 329.12Z" fill="black"/>
<path d="M778.557 180.746C778.557 184.899 775.191 188.265 771.038 188.265C766.885 188.265 763.519 184.899 763.519 180.746C763.519 176.593 766.885 173.227 771.038 173.227C775.191 173.227 778.557 176.593 778.557 180.746Z" fill="black"/>
<path d="M809.887 212.076C809.887 216.229 806.52 219.595 802.368 219.595C798.215 219.595 794.849 216.229 794.849 212.076C794.849 207.923 798.215 204.557 802.368 204.557C806.52 204.557 809.887 207.923 809.887 212.076Z" fill="black"/>
<path d="M778.557 238.916C778.557 243.068 775.191 246.435 771.038 246.435C766.885 246.435 763.519 243.068 763.519 238.916C763.519 234.763 766.885 231.396 771.038 231.396C775.191 231.396 778.557 234.763 778.557 238.916Z" fill="black"/>
<path d="M809.887 270.246C809.887 274.398 806.52 277.765 802.368 277.765C798.215 277.765 794.849 274.398 794.849 270.246C794.849 266.093 798.215 262.727 802.368 262.727C806.52 262.727 809.887 266.093 809.887 270.246Z" fill="black"/>
<path d="M778.557 297.79C778.557 301.943 775.191 305.31 771.038 305.31C766.885 305.31 763.519 301.943 763.519 297.79C763.519 293.638 766.885 290.271 771.038 290.271C775.191 290.271 778.557 293.638 778.557 297.79Z" fill="black"/>
<path d="M809.887 329.12C809.887 333.273 806.52 336.64 802.368 336.64C798.215 336.64 794.849 333.273 794.849 329.12C794.849 324.968 798.215 321.601 802.368 321.601C806.52 321.601 809.887 324.968 809.887 329.12Z" fill="black"/>
<path d="M837.445 180.746C837.445 184.899 834.079 188.265 829.926 188.265C825.773 188.265 822.407 184.899 822.407 180.746C822.407 176.593 825.773 173.227 829.926 173.227C834.079 173.227 837.445 176.593 837.445 180.746Z" fill="black"/>
<path d="M868.775 212.076C868.775 216.229 865.408 219.595 861.256 219.595C857.103 219.595 853.736 216.229 853.736 212.076C853.736 207.923 857.103 204.557 861.256 204.557C865.408 204.557 868.775 207.923 868.775 212.076Z" fill="black"/>
<path d="M896.244 180.746C896.244 184.899 892.878 188.265 888.725 188.265C884.572 188.265 881.206 184.899 881.206 180.746C881.206 176.593 884.572 173.227 888.725 173.227C892.878 173.227 896.244 176.593 896.244 180.746Z" fill="black"/>
<path d="M927.574 212.076C927.574 216.229 924.207 219.595 920.055 219.595C915.902 219.595 912.535 216.229 912.535 212.076C912.535 207.923 915.902 204.557 920.055 204.557C924.207 204.557 927.574 207.923 927.574 212.076Z" fill="black"/>
<path d="M837.445 238.916C837.445 243.068 834.079 246.435 829.926 246.435C825.773 246.435 822.407 243.068 822.407 238.916C822.407 234.763 825.773 231.396 829.926 231.396C834.079 231.396 837.445 234.763 837.445 238.916Z" fill="black"/>
<path d="M868.775 270.246C868.775 274.398 865.408 277.765 861.256 277.765C857.103 277.765 853.736 274.398 853.736 270.246C853.736 266.093 857.103 262.727 861.256 262.727C865.408 262.727 868.775 266.093 868.775 270.246Z" fill="black"/>
<path d="M896.244 238.916C896.244 243.068 892.878 246.435 888.725 246.435C884.572 246.435 881.206 243.068 881.206 238.916C881.206 234.763 884.572 231.396 888.725 231.396C892.878 231.396 896.244 234.763 896.244 238.916Z" fill="black"/>
<path d="M927.574 270.246C927.574 274.398 924.207 277.765 920.055 277.765C915.902 277.765 912.535 274.398 912.535 270.246C912.535 266.093 915.902 262.727 920.055 262.727C924.207 262.727 927.574 266.093 927.574 270.246Z" fill="black"/>
<path d="M837.445 297.79C837.445 301.943 834.079 305.31 829.926 305.31C825.773 305.31 822.407 301.943 822.407 297.79C822.407 293.638 825.773 290.271 829.926 290.271C834.079 290.271 837.445 293.638 837.445 297.79Z" fill="black"/>
<path d="M868.775 329.12C868.775 333.273 865.408 336.64 861.256 336.64C857.103 336.64 853.736 333.273 853.736 329.12C853.736 324.968 857.103 321.601 861.256 321.601C865.408 321.601 868.775 324.968 868.775 329.12Z" fill="black"/>
<path d="M896.244 297.79C896.244 301.943 892.878 305.31 888.725 305.31C884.572 305.31 881.206 301.943 881.206 297.79C881.206 293.638 884.572 290.271 888.725 290.271C892.878 290.271 896.244 293.638 896.244 297.79Z" fill="black"/>
<path d="M927.574 329.12C927.574 333.273 924.207 336.64 920.055 336.64C915.902 336.64 912.535 333.273 912.535 329.12C912.535 324.968 915.902 321.601 920.055 321.601C924.207 321.601 927.574 324.968 927.574 329.12Z" fill="black"/>
<path d="M9.57737 180.746C9.57737 184.899 6.21093 188.265 2.05821 188.265C-2.0945 188.265 -5.46094 184.899 -5.46094 180.746C-5.46094 176.593 -2.0945 173.227 2.05821 173.227C6.21093 173.227 9.57737 176.593 9.57737 180.746Z" fill="black"/>
<path d="M40.9069 212.076C40.9069 216.229 37.5404 219.595 33.3877 219.595C29.235 219.595 25.8686 216.229 25.8686 212.076C25.8686 207.923 29.235 204.557 33.3877 204.557C37.5404 204.557 40.9069 207.923 40.9069 212.076Z" fill="black"/>
<path d="M9.86057 4.97789C9.86057 9.1306 6.49413 12.497 2.34142 12.497C-1.8113 12.497 -5.17773 9.1306 -5.17773 4.97789C-5.17773 0.825179 -1.8113 -2.54126 2.34142 -2.54126C6.49413 -2.54126 9.86057 0.825179 9.86057 4.97789Z" fill="black"/>
<path d="M41.1901 36.3079C41.1901 40.4606 37.8237 43.827 33.6709 43.827C29.5182 43.827 26.1518 40.4606 26.1518 36.3079C26.1518 32.1552 29.5182 28.7887 33.6709 28.7887C37.8237 28.7887 41.1901 32.1552 41.1901 36.3079Z" fill="black"/>
<path d="M9.86057 63.1478C9.86057 67.3005 6.49413 70.667 2.34142 70.667C-1.8113 70.667 -5.17773 67.3005 -5.17773 63.1478C-5.17773 58.9951 -1.8113 55.6287 2.34142 55.6287C6.49413 55.6287 9.86057 58.9951 9.86057 63.1478Z" fill="black"/>
<path d="M41.1901 94.4778C41.1901 98.6305 37.8237 101.997 33.6709 101.997C29.5182 101.997 26.1518 98.6305 26.1518 94.4778C26.1518 90.3251 29.5182 86.9587 33.6709 86.9587C37.8237 86.9587 41.1901 90.3251 41.1901 94.4778Z" fill="black"/>
<path d="M9.86057 122.022C9.86057 126.175 6.49413 129.541 2.34142 129.541C-1.8113 129.541 -5.17773 126.175 -5.17773 122.022C-5.17773 117.869 -1.8113 114.503 2.34142 114.503C6.49413 114.503 9.86057 117.869 9.86057 122.022Z" fill="black"/>
<path d="M41.1901 153.352C41.1901 157.505 37.8237 160.871 33.6709 160.871C29.5182 160.871 26.1518 157.505 26.1518 153.352C26.1518 149.199 29.5182 145.833 33.6709 145.833C37.8237 145.833 41.1901 149.199 41.1901 153.352Z" fill="black"/>
<path d="M68.7336 4.97789C68.7336 9.1306 65.3672 12.497 61.2145 12.497C57.0617 12.497 53.6953 9.1306 53.6953 4.97789C53.6953 0.825179 57.0617 -2.54126 61.2145 -2.54126C65.3672 -2.54126 68.7336 0.825179 68.7336 4.97789Z" fill="black"/>
<path d="M100.063 36.3079C100.063 40.4606 96.6967 43.827 92.544 43.827C88.3913 43.827 85.0248 40.4606 85.0248 36.3079C85.0248 32.1552 88.3913 28.7887 92.544 28.7887C96.6967 28.7887 100.063 32.1552 100.063 36.3079Z" fill="black"/>
<path d="M68.7336 63.1478C68.7336 67.3005 65.3672 70.667 61.2145 70.667C57.0617 70.667 53.6953 67.3005 53.6953 63.1478C53.6953 58.9951 57.0617 55.6287 61.2145 55.6287C65.3672 55.6287 68.7336 58.9951 68.7336 63.1478Z" fill="black"/>
<path d="M100.063 94.4778C100.063 98.6305 96.6967 101.997 92.544 101.997C88.3913 101.997 85.0248 98.6305 85.0248 94.4778C85.0248 90.3251 88.3913 86.9587 92.544 86.9587C96.6967 86.9587 100.063 90.3251 100.063 94.4778Z" fill="black"/>
<path d="M68.7336 122.022C68.7336 126.175 65.3672 129.541 61.2145 129.541C57.0617 129.541 53.6953 126.175 53.6953 122.022C53.6953 117.869 57.0617 114.503 61.2145 114.503C65.3672 114.503 68.7336 117.869 68.7336 122.022Z" fill="black"/>
<path d="M100.063 153.352C100.063 157.505 96.6967 160.871 92.544 160.871C88.3913 160.871 85.0248 157.505 85.0248 153.352C85.0248 149.199 88.3913 145.833 92.544 145.833C96.6967 145.833 100.063 149.199 100.063 153.352Z" fill="black"/>
<path d="M127.609 4.97789C127.609 9.1306 124.242 12.497 120.089 12.497C115.937 12.497 112.57 9.1306 112.57 4.97789C112.57 0.825179 115.937 -2.54126 120.089 -2.54126C124.242 -2.54126 127.609 0.825179 127.609 4.97789Z" fill="black"/>
<path d="M158.938 36.3079C158.938 40.4606 155.572 43.827 151.419 43.827C147.266 43.827 143.9 40.4606 143.9 36.3079C143.9 32.1552 147.266 28.7887 151.419 28.7887C155.572 28.7887 158.938 32.1552 158.938 36.3079Z" fill="black"/>
<path d="M127.609 63.1478C127.609 67.3005 124.242 70.667 120.089 70.667C115.937 70.667 112.57 67.3005 112.57 63.1478C112.57 58.9951 115.937 55.6287 120.089 55.6287C124.242 55.6287 127.609 58.9951 127.609 63.1478Z" fill="black"/>
<path d="M158.938 94.4778C158.938 98.6305 155.572 101.997 151.419 101.997C147.266 101.997 143.9 98.6305 143.9 94.4778C143.9 90.3251 147.266 86.9587 151.419 86.9587C155.572 86.9587 158.938 90.3251 158.938 94.4778Z" fill="black"/>
<path d="M127.609 122.022C127.609 126.175 124.242 129.541 120.089 129.541C115.937 129.541 112.57 126.175 112.57 122.022C112.57 117.869 115.937 114.503 120.089 114.503C124.242 114.503 127.609 117.869 127.609 122.022Z" fill="black"/>
<path d="M158.938 153.352C158.938 157.505 155.572 160.871 151.419 160.871C147.266 160.871 143.9 157.505 143.9 153.352C143.9 149.199 147.266 145.833 151.419 145.833C155.572 145.833 158.938 149.199 158.938 153.352Z" fill="black"/>
<path d="M186.484 4.97789C186.484 9.1306 183.117 12.497 178.964 12.497C174.812 12.497 171.445 9.1306 171.445 4.97789C171.445 0.825179 174.812 -2.54126 178.964 -2.54126C183.117 -2.54126 186.484 0.825179 186.484 4.97789Z" fill="black"/>
<path d="M217.813 36.3079C217.813 40.4606 214.447 43.827 210.294 43.827C206.141 43.827 202.775 40.4606 202.775 36.3079C202.775 32.1552 206.141 28.7887 210.294 28.7887C214.447 28.7887 217.813 32.1552 217.813 36.3079Z" fill="black"/>
<path d="M186.484 63.1478C186.484 67.3005 183.117 70.667 178.964 70.667C174.812 70.667 171.445 67.3005 171.445 63.1478C171.445 58.9951 174.812 55.6287 178.964 55.6287C183.117 55.6287 186.484 58.9951 186.484 63.1478Z" fill="black"/>
<path d="M217.813 94.4778C217.813 98.6305 214.447 101.997 210.294 101.997C206.141 101.997 202.775 98.6305 202.775 94.4778C202.775 90.3251 206.141 86.9587 210.294 86.9587C214.447 86.9587 217.813 90.3251 217.813 94.4778Z" fill="black"/>
<path d="M186.484 122.022C186.484 126.175 183.117 129.541 178.964 129.541C174.812 129.541 171.445 126.175 171.445 122.022C171.445 117.869 174.812 114.503 178.964 114.503C183.117 114.503 186.484 117.869 186.484 122.022Z" fill="black"/>
<path d="M217.813 153.352C217.813 157.505 214.447 160.871 210.294 160.871C206.141 160.871 202.775 157.505 202.775 153.352C202.775 149.199 206.141 145.833 210.294 145.833C214.447 145.833 217.813 149.199 217.813 153.352Z" fill="black"/>
<path d="M245.359 4.97789C245.359 9.1306 241.992 12.497 237.839 12.497C233.687 12.497 230.32 9.1306 230.32 4.97789C230.32 0.825179 233.687 -2.54126 237.839 -2.54126C241.992 -2.54126 245.359 0.825179 245.359 4.97789Z" fill="black"/>
<path d="M276.688 36.3079C276.688 40.4606 273.322 43.827 269.169 43.827C265.016 43.827 261.65 40.4606 261.65 36.3079C261.65 32.1552 265.016 28.7887 269.169 28.7887C273.322 28.7887 276.688 32.1552 276.688 36.3079Z" fill="black"/>
<path d="M245.359 63.1478C245.359 67.3005 241.992 70.667 237.839 70.667C233.687 70.667 230.32 67.3005 230.32 63.1478C230.32 58.9951 233.687 55.6287 237.839 55.6287C241.992 55.6287 245.359 58.9951 245.359 63.1478Z" fill="black"/>
<path d="M276.688 94.4778C276.688 98.6305 273.322 101.997 269.169 101.997C265.016 101.997 261.65 98.6305 261.65 94.4778C261.65 90.3251 265.016 86.9587 269.169 86.9587C273.322 86.9587 276.688 90.3251 276.688 94.4778Z" fill="black"/>
<path d="M245.359 122.022C245.359 126.175 241.992 129.541 237.839 129.541C233.687 129.541 230.32 126.175 230.32 122.022C230.32 117.869 233.687 114.503 237.839 114.503C241.992 114.503 245.359 117.869 245.359 122.022Z" fill="black"/>
<path d="M276.688 153.352C276.688 157.505 273.322 160.871 269.169 160.871C265.016 160.871 261.65 157.505 261.65 153.352C261.65 149.199 265.016 145.833 269.169 145.833C273.322 145.833 276.688 149.199 276.688 153.352Z" fill="black"/>
<path d="M304.232 4.97789C304.232 9.1306 300.865 12.497 296.713 12.497C292.56 12.497 289.193 9.1306 289.193 4.97789C289.193 0.825179 292.56 -2.54126 296.713 -2.54126C300.865 -2.54126 304.232 0.825179 304.232 4.97789Z" fill="black"/>
<path d="M335.561 36.3079C335.561 40.4606 332.195 43.827 328.042 43.827C323.889 43.827 320.523 40.4606 320.523 36.3079C320.523 32.1552 323.889 28.7887 328.042 28.7887C332.195 28.7887 335.561 32.1552 335.561 36.3079Z" fill="black"/>
<path d="M304.232 63.1478C304.232 67.3005 300.865 70.667 296.713 70.667C292.56 70.667 289.193 67.3005 289.193 63.1478C289.193 58.9951 292.56 55.6287 296.713 55.6287C300.865 55.6287 304.232 58.9951 304.232 63.1478Z" fill="black"/>
<path d="M335.561 94.4778C335.561 98.6305 332.195 101.997 328.042 101.997C323.889 101.997 320.523 98.6305 320.523 94.4778C320.523 90.3251 323.889 86.9587 328.042 86.9587C332.195 86.9587 335.561 90.3251 335.561 94.4778Z" fill="black"/>
<path d="M304.232 122.022C304.232 126.175 300.865 129.541 296.713 129.541C292.56 129.541 289.193 126.175 289.193 122.022C289.193 117.869 292.56 114.503 296.713 114.503C300.865 114.503 304.232 117.869 304.232 122.022Z" fill="black"/>
<path d="M335.561 153.352C335.561 157.505 332.195 160.871 328.042 160.871C323.889 160.871 320.523 157.505 320.523 153.352C320.523 149.199 323.889 145.833 328.042 145.833C332.195 145.833 335.561 149.199 335.561 153.352Z" fill="black"/>
<path d="M363.12 4.97789C363.12 9.1306 359.754 12.497 355.601 12.497C351.448 12.497 348.082 9.1306 348.082 4.97789C348.082 0.825179 351.448 -2.54126 355.601 -2.54126C359.754 -2.54126 363.12 0.825179 363.12 4.97789Z" fill="black"/>
<path d="M394.45 36.3079C394.45 40.4606 391.083 43.827 386.931 43.827C382.778 43.827 379.412 40.4606 379.412 36.3079C379.412 32.1552 382.778 28.7887 386.931 28.7887C391.083 28.7887 394.45 32.1552 394.45 36.3079Z" fill="black"/>
<path d="M421.919 4.97789C421.919 9.1306 418.553 12.497 414.4 12.497C410.247 12.497 406.881 9.1306 406.881 4.97789C406.881 0.825179 410.247 -2.54126 414.4 -2.54126C418.553 -2.54126 421.919 0.825179 421.919 4.97789Z" fill="black"/>
<path d="M453.249 36.3079C453.249 40.4606 449.882 43.827 445.73 43.827C441.577 43.827 438.21 40.4606 438.21 36.3079C438.21 32.1552 441.577 28.7887 445.73 28.7887C449.882 28.7887 453.249 32.1552 453.249 36.3079Z" fill="black"/>
<path d="M363.12 63.1478C363.12 67.3005 359.754 70.667 355.601 70.667C351.448 70.667 348.082 67.3005 348.082 63.1478C348.082 58.9951 351.448 55.6287 355.601 55.6287C359.754 55.6287 363.12 58.9951 363.12 63.1478Z" fill="black"/>
<path d="M394.45 94.4778C394.45 98.6305 391.083 101.997 386.931 101.997C382.778 101.997 379.412 98.6305 379.412 94.4778C379.412 90.3251 382.778 86.9587 386.931 86.9587C391.083 86.9587 394.45 90.3251 394.45 94.4778Z" fill="black"/>
<path d="M421.919 63.1478C421.919 67.3005 418.553 70.667 414.4 70.667C410.247 70.667 406.881 67.3005 406.881 63.1478C406.881 58.9951 410.247 55.6287 414.4 55.6287C418.553 55.6287 421.919 58.9951 421.919 63.1478Z" fill="black"/>
<path d="M453.249 94.4778C453.249 98.6305 449.882 101.997 445.73 101.997C441.577 101.997 438.21 98.6305 438.21 94.4778C438.21 90.3251 441.577 86.9587 445.73 86.9587C449.882 86.9587 453.249 90.3251 453.249 94.4778Z" fill="black"/>
<path d="M363.12 122.022C363.12 126.175 359.754 129.541 355.601 129.541C351.448 129.541 348.082 126.175 348.082 122.022C348.082 117.869 351.448 114.503 355.601 114.503C359.754 114.503 363.12 117.869 363.12 122.022Z" fill="black"/>
<path d="M394.45 153.352C394.45 157.505 391.083 160.871 386.931 160.871C382.778 160.871 379.412 157.505 379.412 153.352C379.412 149.199 382.778 145.833 386.931 145.833C391.083 145.833 394.45 149.199 394.45 153.352Z" fill="black"/>
<path d="M421.919 122.022C421.919 126.175 418.553 129.541 414.4 129.541C410.247 129.541 406.881 126.175 406.881 122.022C406.881 117.869 410.247 114.503 414.4 114.503C418.553 114.503 421.919 117.869 421.919 122.022Z" fill="black"/>
<path d="M453.249 153.352C453.249 157.505 449.882 160.871 445.73 160.871C441.577 160.871 438.21 157.505 438.21 153.352C438.21 149.199 441.577 145.833 445.73 145.833C449.882 145.833 453.249 149.199 453.249 153.352Z" fill="black"/>
<path d="M9.57737 238.916C9.57737 243.069 6.21093 246.435 2.05821 246.435C-2.0945 246.435 -5.46094 243.069 -5.46094 238.916C-5.46094 234.763 -2.0945 231.397 2.05821 231.397C6.21093 231.397 9.57737 234.763 9.57737 238.916Z" fill="black"/>
<path d="M40.9069 270.246C40.9069 274.399 37.5404 277.765 33.3877 277.765C29.235 277.765 25.8686 274.399 25.8686 270.246C25.8686 266.093 29.235 262.727 33.3877 262.727C37.5404 262.727 40.9069 266.093 40.9069 270.246Z" fill="black"/>
<path d="M9.57737 297.79C9.57737 301.943 6.21093 305.31 2.05821 305.31C-2.0945 305.31 -5.46094 301.943 -5.46094 297.79C-5.46094 293.638 -2.0945 290.271 2.05821 290.271C6.21093 290.271 9.57737 293.638 9.57737 297.79Z" fill="black"/>
<path d="M40.9069 329.12C40.9069 333.273 37.5404 336.64 33.3877 336.64C29.235 336.64 25.8686 333.273 25.8686 329.12C25.8686 324.968 29.235 321.601 33.3877 321.601C37.5404 321.601 40.9069 324.968 40.9069 329.12Z" fill="black"/>
<path d="M68.4504 180.746C68.4504 184.899 65.084 188.265 60.9313 188.265C56.7785 188.265 53.4121 184.899 53.4121 180.746C53.4121 176.593 56.7785 173.227 60.9313 173.227C65.084 173.227 68.4504 176.593 68.4504 180.746Z" fill="black"/>
<path d="M99.7799 212.076C99.7799 216.229 96.4135 219.595 92.2608 219.595C88.1081 219.595 84.7416 216.229 84.7416 212.076C84.7416 207.923 88.1081 204.557 92.2608 204.557C96.4135 204.557 99.7799 207.923 99.7799 212.076Z" fill="black"/>
<path d="M68.4504 238.916C68.4504 243.069 65.084 246.435 60.9313 246.435C56.7785 246.435 53.4121 243.069 53.4121 238.916C53.4121 234.763 56.7785 231.397 60.9313 231.397C65.084 231.397 68.4504 234.763 68.4504 238.916Z" fill="black"/>
<path d="M99.7799 270.246C99.7799 274.399 96.4135 277.765 92.2608 277.765C88.1081 277.765 84.7416 274.399 84.7416 270.246C84.7416 266.093 88.1081 262.727 92.2608 262.727C96.4135 262.727 99.7799 266.093 99.7799 270.246Z" fill="black"/>
<path d="M68.4504 297.79C68.4504 301.943 65.084 305.31 60.9313 305.31C56.7785 305.31 53.4121 301.943 53.4121 297.79C53.4121 293.638 56.7785 290.271 60.9313 290.271C65.084 290.271 68.4504 293.638 68.4504 297.79Z" fill="black"/>
<path d="M99.7799 329.12C99.7799 333.273 96.4135 336.64 92.2608 336.64C88.1081 336.64 84.7416 333.273 84.7416 329.12C84.7416 324.968 88.1081 321.601 92.2608 321.601C96.4135 321.601 99.7799 324.968 99.7799 329.12Z" fill="black"/>
<path d="M127.327 180.746C127.327 184.899 123.961 188.265 119.808 188.265C115.656 188.265 112.289 184.899 112.289 180.746C112.289 176.593 115.656 173.227 119.808 173.227C123.961 173.227 127.327 176.593 127.327 180.746Z" fill="black"/>
<path d="M158.657 212.076C158.657 216.229 155.29 219.595 151.138 219.595C146.985 219.595 143.619 216.229 143.619 212.076C143.619 207.923 146.985 204.557 151.138 204.557C155.29 204.557 158.657 207.923 158.657 212.076Z" fill="black"/>
<path d="M127.327 238.916C127.327 243.069 123.961 246.435 119.808 246.435C115.656 246.435 112.289 243.069 112.289 238.916C112.289 234.763 115.656 231.397 119.808 231.397C123.961 231.397 127.327 234.763 127.327 238.916Z" fill="black"/>
<path d="M158.657 270.246C158.657 274.399 155.29 277.765 151.138 277.765C146.985 277.765 143.619 274.399 143.619 270.246C143.619 266.093 146.985 262.727 151.138 262.727C155.29 262.727 158.657 266.093 158.657 270.246Z" fill="black"/>
<path d="M127.327 297.79C127.327 301.943 123.961 305.31 119.808 305.31C115.656 305.31 112.289 301.943 112.289 297.79C112.289 293.638 115.656 290.271 119.808 290.271C123.961 290.271 127.327 293.638 127.327 297.79Z" fill="black"/>
<path d="M158.657 329.12C158.657 333.273 155.29 336.64 151.138 336.64C146.985 336.64 143.619 333.273 143.619 329.12C143.619 324.968 146.985 321.601 151.138 321.601C155.29 321.601 158.657 324.968 158.657 329.12Z" fill="black"/>
<path d="M186.202 180.746C186.202 184.899 182.836 188.265 178.683 188.265C174.531 188.265 171.164 184.899 171.164 180.746C171.164 176.593 174.531 173.227 178.683 173.227C182.836 173.227 186.202 176.593 186.202 180.746Z" fill="black"/>
<path d="M217.532 212.076C217.532 216.229 214.165 219.595 210.013 219.595C205.86 219.595 202.494 216.229 202.494 212.076C202.494 207.923 205.86 204.557 210.013 204.557C214.165 204.557 217.532 207.923 217.532 212.076Z" fill="black"/>
<path d="M186.202 238.916C186.202 243.069 182.836 246.435 178.683 246.435C174.531 246.435 171.164 243.069 171.164 238.916C171.164 234.763 174.531 231.397 178.683 231.397C182.836 231.397 186.202 234.763 186.202 238.916Z" fill="black"/>
<path d="M217.532 270.246C217.532 274.399 214.165 277.765 210.013 277.765C205.86 277.765 202.494 274.399 202.494 270.246C202.494 266.093 205.86 262.727 210.013 262.727C214.165 262.727 217.532 266.093 217.532 270.246Z" fill="black"/>
<path d="M186.202 297.79C186.202 301.943 182.836 305.31 178.683 305.31C174.531 305.31 171.164 301.943 171.164 297.79C171.164 293.638 174.531 290.271 178.683 290.271C182.836 290.271 186.202 293.638 186.202 297.79Z" fill="black"/>
<path d="M217.532 329.12C217.532 333.273 214.165 336.64 210.013 336.64C205.86 336.64 202.494 333.273 202.494 329.12C202.494 324.968 205.86 321.601 210.013 321.601C214.165 321.601 217.532 324.968 217.532 329.12Z" fill="black"/>
<path d="M245.075 180.746C245.075 184.899 241.709 188.265 237.556 188.265C233.404 188.265 230.037 184.899 230.037 180.746C230.037 176.593 233.404 173.227 237.556 173.227C241.709 173.227 245.075 176.593 245.075 180.746Z" fill="black"/>
<path d="M276.405 212.076C276.405 216.229 273.038 219.595 268.886 219.595C264.733 219.595 261.367 216.229 261.367 212.076C261.367 207.923 264.733 204.557 268.886 204.557C273.038 204.557 276.405 207.923 276.405 212.076Z" fill="black"/>
<path d="M245.075 238.916C245.075 243.069 241.709 246.435 237.556 246.435C233.404 246.435 230.037 243.069 230.037 238.916C230.037 234.763 233.404 231.397 237.556 231.397C241.709 231.397 245.075 234.763 245.075 238.916Z" fill="black"/>
<path d="M276.405 270.246C276.405 274.399 273.038 277.765 268.886 277.765C264.733 277.765 261.367 274.399 261.367 270.246C261.367 266.093 264.733 262.727 268.886 262.727C273.038 262.727 276.405 266.093 276.405 270.246Z" fill="black"/>
<path d="M245.075 297.79C245.075 301.943 241.709 305.31 237.556 305.31C233.404 305.31 230.037 301.943 230.037 297.79C230.037 293.638 233.404 290.271 237.556 290.271C241.709 290.271 245.075 293.638 245.075 297.79Z" fill="black"/>
<path d="M276.405 329.12C276.405 333.273 273.038 336.64 268.886 336.64C264.733 336.64 261.367 333.273 261.367 329.12C261.367 324.968 264.733 321.601 268.886 321.601C273.038 321.601 276.405 324.968 276.405 329.12Z" fill="black"/>
<path d="M303.95 180.746C303.95 184.899 300.584 188.265 296.431 188.265C292.279 188.265 288.912 184.899 288.912 180.746C288.912 176.593 292.279 173.227 296.431 173.227C300.584 173.227 303.95 176.593 303.95 180.746Z" fill="black"/>
<path d="M335.28 212.076C335.28 216.229 331.913 219.595 327.761 219.595C323.608 219.595 320.242 216.229 320.242 212.076C320.242 207.923 323.608 204.557 327.761 204.557C331.913 204.557 335.28 207.923 335.28 212.076Z" fill="black"/>
<path d="M303.95 238.916C303.95 243.069 300.584 246.435 296.431 246.435C292.279 246.435 288.912 243.069 288.912 238.916C288.912 234.763 292.279 231.397 296.431 231.397C300.584 231.397 303.95 234.763 303.95 238.916Z" fill="black"/>
<path d="M335.28 270.246C335.28 274.399 331.913 277.765 327.761 277.765C323.608 277.765 320.242 274.399 320.242 270.246C320.242 266.093 323.608 262.727 327.761 262.727C331.913 262.727 335.28 266.093 335.28 270.246Z" fill="black"/>
<path d="M303.95 297.79C303.95 301.943 300.584 305.31 296.431 305.31C292.279 305.31 288.912 301.943 288.912 297.79C288.912 293.638 292.279 290.271 296.431 290.271C300.584 290.271 303.95 293.638 303.95 297.79Z" fill="black"/>
<path d="M335.28 329.12C335.28 333.273 331.913 336.64 327.761 336.64C323.608 336.64 320.242 333.273 320.242 329.12C320.242 324.968 323.608 321.601 327.761 321.601C331.913 321.601 335.28 324.968 335.28 329.12Z" fill="black"/>
<path d="M362.837 180.746C362.837 184.899 359.471 188.265 355.318 188.265C351.165 188.265 347.799 184.899 347.799 180.746C347.799 176.593 351.165 173.227 355.318 173.227C359.471 173.227 362.837 176.593 362.837 180.746Z" fill="black"/>
<path d="M394.167 212.076C394.167 216.229 390.8 219.595 386.647 219.595C382.495 219.595 379.128 216.229 379.128 212.076C379.128 207.923 382.495 204.557 386.647 204.557C390.8 204.557 394.167 207.923 394.167 212.076Z" fill="black"/>
<path d="M421.636 180.746C421.636 184.899 418.27 188.265 414.117 188.265C409.964 188.265 406.598 184.899 406.598 180.746C406.598 176.593 409.964 173.227 414.117 173.227C418.27 173.227 421.636 176.593 421.636 180.746Z" fill="black"/>
<path d="M452.965 212.076C452.965 216.229 449.599 219.595 445.446 219.595C441.294 219.595 437.927 216.229 437.927 212.076C437.927 207.923 441.294 204.557 445.446 204.557C449.599 204.557 452.965 207.923 452.965 212.076Z" fill="black"/>
<path d="M362.837 238.916C362.837 243.069 359.471 246.435 355.318 246.435C351.165 246.435 347.799 243.069 347.799 238.916C347.799 234.763 351.165 231.397 355.318 231.397C359.471 231.397 362.837 234.763 362.837 238.916Z" fill="black"/>
<path d="M394.167 270.246C394.167 274.399 390.8 277.765 386.647 277.765C382.495 277.765 379.128 274.399 379.128 270.246C379.128 266.093 382.495 262.727 386.647 262.727C390.8 262.727 394.167 266.093 394.167 270.246Z" fill="black"/>
<path d="M421.636 238.916C421.636 243.069 418.27 246.435 414.117 246.435C409.964 246.435 406.598 243.069 406.598 238.916C406.598 234.763 409.964 231.397 414.117 231.397C418.27 231.397 421.636 234.763 421.636 238.916Z" fill="black"/>
<path d="M452.965 270.246C452.965 274.399 449.599 277.765 445.446 277.765C441.294 277.765 437.927 274.399 437.927 270.246C437.927 266.093 441.294 262.727 445.446 262.727C449.599 262.727 452.965 266.093 452.965 270.246Z" fill="black"/>
<path d="M362.837 297.79C362.837 301.943 359.471 305.31 355.318 305.31C351.165 305.31 347.799 301.943 347.799 297.79C347.799 293.638 351.165 290.271 355.318 290.271C359.471 290.271 362.837 293.638 362.837 297.79Z" fill="black"/>
<path d="M394.167 329.12C394.167 333.273 390.8 336.64 386.647 336.64C382.495 336.64 379.128 333.273 379.128 329.12C379.128 324.968 382.495 321.601 386.647 321.601C390.8 321.601 394.167 324.968 394.167 329.12Z" fill="black"/>
<path d="M421.636 297.79C421.636 301.943 418.27 305.31 414.117 305.31C409.964 305.31 406.598 301.943 406.598 297.79C406.598 293.638 409.964 290.271 414.117 290.271C418.27 290.271 421.636 293.638 421.636 297.79Z" fill="black"/>
<path d="M452.965 329.12C452.965 333.273 449.599 336.64 445.446 336.64C441.294 336.64 437.927 333.273 437.927 329.12C437.927 324.968 441.294 321.601 445.446 321.601C449.599 321.601 452.965 324.968 452.965 329.12Z" fill="black"/>
</svg>
