<svg width="30" height="30" viewBox="0 0 30 30" fill="none" xmlns="http://www.w3.org/2000/svg">
<path fill-rule="evenodd" clip-rule="evenodd" d="M4.71443 4.08618C4.36733 4.08618 4.08594 4.36757 4.08594 4.71468V18.5053C4.08594 18.8524 4.36733 19.1338 4.71444 19.1338H10.8314V24.8857C10.8314 25.2259 10.8314 25.3959 10.8955 25.5268C10.9568 25.652 11.0581 25.7533 11.1834 25.8147C11.3142 25.8788 11.4843 25.8788 11.8244 25.8788H24.886C25.2261 25.8788 25.3962 25.8788 25.527 25.8147C25.6523 25.7533 25.7535 25.652 25.8149 25.5268C25.879 25.3959 25.879 25.2259 25.879 24.8857V11.8242C25.879 11.484 25.879 11.314 25.8149 11.1831C25.7535 11.0579 25.6523 10.9566 25.527 10.8952C25.3962 10.8311 25.2261 10.8311 24.886 10.8311H19.1336V4.71468C19.1336 4.36757 18.8522 4.08618 18.5051 4.08618H4.71443Z" fill="white"/>
<path d="M10.7871 11.7726C10.7871 11.4324 10.7871 11.2624 10.8512 11.1315C10.9126 11.0063 11.0138 10.905 11.1391 10.8436C11.2699 10.7795 11.44 10.7795 11.7801 10.7795H19.1346V18.0294C19.1346 18.3704 19.1346 18.5408 19.0677 18.6262C19.0043 18.7071 18.9053 18.7519 18.8026 18.7461C18.6943 18.74 18.5663 18.6274 18.3103 18.4024L15.2887 15.746C15.1751 15.6461 15.1183 15.5962 15.0546 15.5763C14.9936 15.5572 14.9282 15.5572 14.8671 15.5763C14.8035 15.5962 14.7467 15.6461 14.633 15.746L10.7871 19.127V11.7726Z" fill="black"/>
</svg>
